<?xml version="1.0" standalone="no"?>
<!DOCTYPE svg PUBLIC "-//W3C//DTD SVG 20010904//EN"
 "http://www.w3.org/TR/2001/REC-SVG-20010904/DTD/svg10.dtd">
<svg version="1.0" xmlns="http://www.w3.org/2000/svg"
 width="587.000000pt" height="1001.000000pt" viewBox="0 0 587.000000 1001.000000"
 preserveAspectRatio="xMidYMid meet">

<g transform="translate(0.000000,1001.000000) scale(0.100000,-0.100000)"
fill="#000000" stroke="none">
<path d="M2045 9980 c-526 -16 -904 -44 -1048 -76 -86 -20 -154 -65 -184 -123
l-23 -44 2 -2156 3 -2156 22 -41 c12 -23 46 -63 76 -91 123 -112 342 -182 775
-248 86 -14 198 -35 247 -49 50 -13 147 -32 218 -42 l127 -17 0 -52 c0 -99 42
-197 115 -268 l35 -34 0 -272 c0 -255 -1 -271 -18 -271 -10 0 -56 -10 -103
-21 -173 -44 -291 -121 -322 -212 -8 -23 -41 -159 -72 -302 -162 -738 -324
-1367 -370 -1432 -24 -34 -171 -126 -260 -162 -185 -76 -320 -183 -377 -299
l-33 -66 -3 -221 c-3 -205 -2 -225 18 -285 28 -82 76 -148 159 -217 382 -315
1541 -472 2605 -352 416 46 745 129 981 244 187 92 293 195 335 325 20 61 21
84 18 286 l-3 220 -33 66 c-59 120 -191 223 -388 303 -105 43 -184 88 -241
138 -25 22 -40 50 -63 123 -69 216 -178 656 -334 1348 -50 219 -72 299 -91
328 -52 79 -165 138 -333 174 l-82 17 0 273 0 273 43 44 c63 62 97 139 104
230 l6 74 126 18 c69 9 167 28 216 41 50 14 162 36 249 49 531 83 761 174 848
337 23 43 23 46 26 503 2 311 0 472 -8 497 -14 49 -51 92 -116 133 l-54 35 0
1059 0 1059 49 36 c66 49 108 98 121 143 8 26 10 176 8 475 l-3 436 -30 44
c-40 56 -115 93 -226 112 -108 19 -415 43 -719 57 -305 13 -1646 20 -1995 9z
m1565 -399 c288 -11 -695 -24 -1158 -15 -339 7 -396 10 -277 14 212 8 1249 9
1435 1z m-2190 -181 c388 -25 778 -34 1470 -34 810 0 1281 15 1663 50 l67 7 0
-211 0 -210 -35 -26 c-38 -29 -98 -44 -275 -70 -634 -92 -1812 -106 -2593 -30
-166 16 -169 16 -195 -3 -60 -45 -57 44 -60 -1411 -3 -1450 -6 -1370 51 -1407
28 -18 259 -48 539 -70 430 -34 1178 -36 1608 -5 341 24 712 75 878 120 40 11
74 20 77 20 3 0 5 -47 5 -104 l0 -104 -38 -15 c-61 -25 -279 -75 -412 -97
-740 -116 -1882 -114 -2590 6 -149 25 -306 61 -362 83 l-28 11 0 1761 0 1761
38 -6 c20 -3 107 -10 192 -16z m3020 -1847 l0 -1168 25 -44 c14 -24 24 -45 22
-47 -1 -2 -59 -14 -127 -28 -595 -118 -1705 -144 -2530 -60 -85 9 -158 18
-162 20 -5 3 -8 557 -8 1231 l0 1225 48 -6 c233 -29 686 -47 1177 -47 588 0
1033 22 1380 70 72 10 140 19 153 20 l22 1 0 -1167z m176 -1978 c-7 -18 -141
-61 -281 -90 -505 -103 -1900 -124 -2615 -39 -161 19 -351 58 -448 92 l-77 27
-3 62 -3 61 47 -14 c203 -61 606 -116 1064 -145 237 -15 941 -15 1175 0 472
30 865 85 1080 149 l60 18 3 -54 c2 -30 1 -60 -2 -67z m-1466 -609 c0 -37 -4
-45 -22 -50 -13 -3 -123 -6 -245 -6 l-223 0 0 50 0 50 245 0 245 0 0 -44z
m-150 -741 l0 -375 -95 0 -95 0 0 375 0 375 95 0 95 0 0 -375z m-157 -571 c74
-4 151 -2 207 5 91 13 249 6 233 -10 -4 -4 -75 -13 -158 -20 -212 -17 -699 2
-615 24 43 11 93 15 155 11 33 -2 113 -7 178 -10z m725 -451 c35 -153 97 -413
137 -578 123 -498 183 -690 246 -781 59 -87 248 -223 374 -271 84 -31 181 -79
213 -104 l24 -18 -34 -21 c-58 -36 -234 -100 -370 -134 -871 -223 -2310 -160
-2868 124 l-44 22 25 19 c32 26 106 64 201 104 99 42 257 147 331 219 80 79
111 146 187 409 40 140 195 772 256 1044 26 117 51 218 55 224 5 8 33 7 105
-5 298 -49 702 -47 974 4 52 10 102 18 110 19 12 1 29 -59 78 -276z m978
-2062 c-60 -63 -305 -157 -536 -206 -167 -35 -338 -60 -550 -82 -247 -24 -853
-24 -1100 0 -442 45 -779 121 -982 222 -90 45 -128 80 -128 116 l0 27 73 -30
c103 -42 288 -94 457 -128 522 -106 1240 -128 1854 -59 363 41 750 132 904
213 26 14 27 14 30 -16 3 -22 -4 -38 -22 -57z"/>
</g>
</svg>
