<?xml version="1.0" encoding="UTF-8"?>
<svg width="552px" height="666px" viewBox="0 0 552 666" version="1.1" xmlns="http://www.w3.org/2000/svg" xmlns:xlink="http://www.w3.org/1999/xlink">
    <title>alarm_panel</title>
    <g id="Page-1" stroke="none" stroke-width="1" fill="none" fill-rule="evenodd">
        <g id="Artboard-Copy-10" transform="translate(-119.000000, -173.000000)">
            <g id="alarm_panel" transform="translate(119.000000, 173.000000)">
                <path d="M87.162,0.303828878 L87.518,0.359618025 L88.016,0.349854925 C89.3789481,0.332229145 90.7423621,0.352468753 92.103,0.410525622 L92.922,0.450275389 L504.922,22.6097246 C531.488,24.0386241 552,39.488731 552,58.0700038 L552,609.078488 C552,627.710668 531.38,643.184485 504.735,644.54853 L92.735,665.644499 C90.8899574,665.739257 89.0388878,665.763934 87.19,665.718419 L87.04,665.71284 L86.692,665.761656 C83.6864247,666.155642 80.5909706,666.060179 77.647,665.48271 L77.263,665.404605 L34.943,656.567604 C14.205,652.236972 0,638.929168 0,623.833322 L0,41.9218352 C0,26.7290557 14.384,13.3605814 35.302,9.11363255 L77.409,0.564643141 C80.5783577,-0.0863531163 83.9304599,-0.175994874 87.162,0.303828878 L87.162,0.303828878 Z M68.793,53.8964805 C68.7535318,54.2490494 68.7339992,54.6024903 68.7339992,54.9560526 L68.7339992,612.771421 C68.7339992,620.553471 78.136,626.86326 89.7339992,626.86326 C90.2358295,626.86326 90.7374849,626.85071 91.238,626.826352 L358.387,613.956477 L501.806,606.890427 C507.552388,606.607122 512,603.396239 512,599.52979 L512,69.3210045 C512,65.4646478 507.575815,62.2582984 501.846,61.9617095 L255.81,49.2267136 L91.313,40.9038052 C79.748,40.3186584 69.665,46.1359036 68.793,53.8964805 L68.793,53.8964805 Z M48,50.3396817 L44.9982656,51.0945781 C42.111235,51.8207387 40.0937688,54.0674743 40,56.6608581 L40,611.834936 C39.9998892,614.479527 42.0111421,616.810784 44.9473887,617.569488 L47.927539,618.339682 C47.1324444,615.915234 46.7303461,613.407458 46.7327038,610.887823 L46.7327038,58.0043741 C46.7322446,55.4105828 47.1589413,52.8298928 48,50.3396817 L48,50.3396817 Z" id="Shape" fill="#000000" fill-rule="nonzero"></path>
                <g id="Group" transform="translate(247.000000, 231.468713)" stroke="#000000" stroke-width="20">
                    <path d="M33.536,40.066969 L74.967,40.066969 C81.032,53.274969 84.917,63.259969 86.619,70.023969 C88.321,76.788969 89.542,87.084969 90.281,100.913969 L153.686,155.500969 L142.216,202.999969 L93.61,202.999969 L33.536,155.500969 L33.536,40.066969 L33.536,40.066969 Z" id="Path"></path>
                    <polyline id="Path" points="153.685725 155.500995 105.051947 155.500995 93.611469 203"></polyline>
                    <path d="M33.537,40.066969 C39.165,56.358969 42.812,68.164969 44.475,75.483969 C46.139,82.803969 47.332,92.282969 48.053,103.923969 L105.052,155.500969" id="Path"></path>
                    <polyline id="Path" points="105 195 0 195 0 0 105 0 105.051947 115.195313 105 101.100451"></polyline>
                </g>
            </g>
        </g>
    </g>
</svg>