<?xml version="1.0" encoding="UTF-8"?>
<svg width="364px" height="318px" viewBox="0 0 364 318" version="1.1" xmlns="http://www.w3.org/2000/svg" xmlns:xlink="http://www.w3.org/1999/xlink">
    <title>logo_light</title>
    <defs>
        <polygon id="path-1" points="-2.2759572e-15 3.44169138e-15 363.747 3.44169138e-15 363.747 317.28 -2.2759572e-15 317.28"></polygon>
        <polygon id="path-3" points="-2.2759572e-15 3.44169138e-15 363.747 3.44169138e-15 363.747 317.28 -2.2759572e-15 317.28"></polygon>
    </defs>
    <g id="Page-1" stroke="none" stroke-width="1" fill="none" fill-rule="evenodd">
        <g id="Artboard" transform="translate(-18.000000, -41.000000)">
            <g id="logo_light" transform="translate(18.000000, 41.000000)">
                <path d="M83.171,285.136 C125.276,285.136 159.532,250.881 159.532,208.775 C159.532,190.004 152.632,172.253 140.664,158.553 C136.917,154.263 130.427,153.768 126.171,157.555 L126.161,157.564 C121.976,161.288 121.638,167.664 125.329,171.879 C134.139,181.939 139.222,194.98 139.222,208.775 C139.222,239.682 114.077,264.825 83.171,264.825 C67.212,264.825 52.173,257.968 41.665,246.394 C37.918,242.267 31.563,241.905 27.399,245.61 C23.157,249.386 22.853,255.89 26.675,260.09 C40.988,275.819 61.456,285.136 83.171,285.136" id="Fill-1" fill="#000000" fill-rule="nonzero"></path>
                <g id="Group-5">
                    <g id="Fill-2-Clipped">
                        <mask id="mask-2" fill="white">
                            <use xlink:href="#path-1"></use>
                        </mask>
                        <g id="path-1"></g>
                        <path d="M83.171,250.611 C106.24,250.611 125.007,231.843 125.007,208.775 C125.007,191.895 112.343,177.208 112.343,177.208 C96.935,158.67 87.958,137.511 87.958,114.116 C87.958,62.393 130.038,20.311 181.763,20.311 C233.487,20.311 275.568,62.393 275.568,114.116 C275.568,137.578 264.852,159.304 251.059,177.344 C248.377,181.482 238.521,192.253 238.521,208.775 C238.521,231.843 257.286,250.611 280.354,250.611 C292.93,250.611 304.343,245.035 312.062,236.052 C315.365,232.207 314.893,226.39 311.105,223.02 L309.939,221.982 C306.022,218.495 300.049,218.942 296.61,222.9 C292.639,227.472 286.79,230.301 280.354,230.301 C268.485,230.301 258.831,220.644 258.831,208.775 C258.831,185.283 295.88,166.907 295.88,114.116 C295.88,51.194 244.687,3.44169138e-15 181.763,3.44169138e-15 C118.839,3.44169138e-15 67.647,51.194 67.647,114.116 C67.647,170.709 104.697,189.719 104.697,208.775 C104.697,220.644 95.041,230.301 83.171,230.301 C76.795,230.301 70.99,227.525 67.019,223.028 C63.568,219.121 57.635,218.704 53.741,222.169 L52.577,223.204 C48.777,226.586 48.311,232.435 51.652,236.27 C59.367,245.126 70.697,250.611 83.171,250.611" id="Fill-2" fill="#000000" fill-rule="nonzero" mask="url(#mask-2)"></path>
                    </g>
                    <g id="Fill-4-Clipped">
                        <mask id="mask-4" fill="white">
                            <use xlink:href="#path-3"></use>
                        </mask>
                        <g id="path-3"></g>
                        <path d="M280.354,297.029 C231.689,297.029 192.1,257.44 192.1,208.775 C192.1,186.954 200.136,166.284 214.246,150.339 C217.977,146.125 217.682,139.722 213.477,135.981 L213.464,135.969 C209.271,132.238 202.842,132.626 199.113,136.821 C195.831,140.514 192.814,144.412 190.078,148.489 C186.142,154.357 177.379,154.347 173.442,148.48 C170.756,144.478 167.797,140.649 164.584,137.016 C160.861,132.807 154.42,132.416 150.222,136.152 L150.208,136.165 C146.011,139.9 145.71,146.289 149.423,150.506 C163.445,166.427 171.427,187.029 171.427,208.775 C171.427,257.44 131.835,297.029 83.171,297.029 C58.066,297.029 34.328,286.309 17.698,267.914 C13.924,263.739 7.547,263.276 3.343,267.018 L3.339,267.022 C-0.873,270.77 -1.214,277.235 2.561,281.422 C23.014,304.106 52.243,317.34 83.171,317.34 C120.725,317.34 153.867,298.164 173.363,269.098 C177.375,263.116 186.151,263.116 190.163,269.098 C209.659,298.164 242.801,317.34 280.354,317.34 C311.37,317.34 340.678,304.03 361.141,281.227 C364.9,277.036 364.556,270.584 360.35,266.841 C356.139,263.094 349.749,263.565 345.98,267.755 C329.341,286.248 305.532,297.029 280.354,297.029" id="Fill-4" fill="#000000" fill-rule="nonzero" mask="url(#mask-4)"></path>
                    </g>
                </g>
                <path d="M280.354,264.825 C249.446,264.825 224.304,239.682 224.304,208.775 C224.304,194.909 229.438,181.805 238.332,171.725 C242.048,167.512 241.72,161.113 237.522,157.379 L237.512,157.369 C233.263,153.588 226.789,154.078 223.032,158.349 C210.957,172.076 203.993,189.912 203.993,208.775 C203.993,250.881 238.247,285.136 280.354,285.136 C302.162,285.136 322.712,275.743 337.033,259.894 C340.834,255.688 340.525,249.2 336.291,245.432 C332.115,241.715 325.739,242.089 321.997,246.241 C311.482,257.907 296.382,264.825 280.354,264.825" id="Fill-6" fill="#000000" fill-rule="nonzero"></path>
            </g>
        </g>
    </g>
</svg>