<?xml version="1.0" encoding="UTF-8"?>
<svg width="500px" height="500px" viewBox="0 0 500 500" version="1.1" xmlns="http://www.w3.org/2000/svg" xmlns:xlink="http://www.w3.org/1999/xlink">
    <title>Artboard</title>
    <g id="Artboard" stroke="none" stroke-width="1" fill="none" fill-rule="evenodd">
        <g id="Group" transform="translate(6.799609, 122.190063)" stroke="#000000" stroke-width="16">
            <path d="M135.692471,160.394797 C216.502947,183.008418 260.72888,194.315228 268.37027,194.315228 C276.01166,194.315228 301.590245,187.604762 345.106026,174.18383" id="Stroke-448"></path>
            <path d="M136.042336,160.401962 C135.507011,160.59131 135.133223,159.04309 134.92097,155.757302 C134.708718,152.471513 136.275138,137.500906 139.620232,110.84548" id="Stroke-449"></path>
            <path d="M213.791367,134.762922 C214.145586,134.645148 214.378001,134.265403 214.51324,133.896853 C214.621611,133.602641 214.668183,133.315593 214.590264,133.005707 C214.532048,132.774188 214.403974,132.529683 214.188576,132.469676" id="Stroke-574"></path>
            <path d="M213.791367,134.762922 L345.106026,174.18383 C345.432033,174.099642 345.673404,173.766917 345.792522,173.428819 C345.888801,173.156997 345.906266,172.881592 345.805508,172.61604 C345.72938,172.415868 345.585185,172.221517 345.388147,172.165541" id="Stroke-575"></path>
            <line x1="135.692471" y1="160.394797" x2="213.791367" y2="134.762922" id="Stroke-578"></line>
            <path d="M213.467151,134.22913 C213.464464,134.283763 213.469838,134.338844 213.48372,134.393925 C213.510589,134.504087 213.566117,134.599023 213.650754,134.679181 C213.6924,134.719037 213.739421,134.747249 213.791367,134.76337" id="Stroke-579"></path>
            <path d="M135.384376,159.913399 L213.467151,134.22913 C213.689266,134.155689 213.832118,133.918796 213.919441,133.687277 C213.989748,133.502331 214.023781,133.320967 213.973626,133.12796 C213.936458,132.983764 213.851821,132.833299 213.716582,132.795235 C213.390127,132.703434 213.067702,132.596855 212.74886,132.475945 C212.112071,132.233679 211.502151,131.936332 210.918204,131.584799 C210.626678,131.408809 210.343213,131.221623 210.068256,131.022795" id="Stroke-580"></path>
            <path d="M213.716582,132.795235 C213.742108,132.71239 213.787784,132.632232 213.850926,132.569986 C213.901529,132.520279 213.962879,132.482215 214.031394,132.466093 C214.082893,132.454003 214.138421,132.45445 214.188576,132.469676" id="Stroke-584"></path>
            <path d="M465.490932,207.925136 C464.80981,208.043359 464.12197,208.121278 463.426966,208.15979 C462.037405,208.236366 460.659039,208.139638 459.292316,207.869608 C458.608954,207.734368 457.939923,207.557035 457.285221,207.336711" id="Stroke-585"></path>
            <path d="M473.061645,161.692109 C475.398777,162.549669 477.554545,163.991177 479.305939,165.787352 C481.63501,168.175982 483.249373,171.191549 484.178135,174.404602 C485.338865,178.417447 485.430218,182.738835 484.665803,186.862289 C483.751818,191.79315 481.613963,196.44144 478.290748,200.251426 C474.974251,204.055143 470.051587,207.091319 465.196407,207.969479" id="Stroke-586"></path>
            <path d="M456.528867,157.058148 C459.333514,156.84902 462.26355,157.372512 464.825483,158.591905 C468.226169,160.210298 470.979319,163.053458 472.791615,166.384285 C475.057096,170.548043 475.852859,175.47353 475.49237,180.240043 C475.131881,185.011482 473.61335,189.623947 471.156204,193.643062 C469.181353,196.874027 466.599715,199.721665 463.456521,201.829517 C461.091625,203.41522 458.408334,204.582218 455.626077,205.076155 C454.419223,205.290657 453.18774,205.375294 451.931627,205.33096 C449.420296,205.241846 447.058086,204.598787 444.845894,203.402233 C443.739798,202.803956 442.724608,202.102234 441.800323,201.297068" id="Stroke-587"></path>
            <path d="M445.02278,202.177467 C445.810482,202.623936 446.638934,202.999202 447.506794,203.303714 C449.243858,203.912739 451.031076,204.202921 452.868898,204.174709 C453.788256,204.160827 454.693732,204.073951 455.585774,203.91453 C458.118152,203.46224 460.564102,202.425555 462.738231,201.015394 C465.627515,199.1413 468.035401,196.608026 469.918899,193.720085 C472.264092,190.123706 473.795162,185.978308 474.340149,181.668116 C474.884689,177.361058 474.444489,172.889653 472.773702,168.912185 C471.436087,165.729584 469.31077,162.863138 466.481493,160.91605 C464.352146,159.450361 461.823798,158.50503 459.274851,158.24082" id="Stroke-588"></path>
            <path d="M38.5749909,25.5688427 C38.946675,22.6477637 39.1764027,19.4736708 39.0931096,16.5225884 C39.0263856,14.1639615 38.7787455,11.804439 38.2445055,9.51298397 C37.8459526,7.8036848 37.2884264,6.13110622 36.3498121,4.59824505 C35.4174671,3.07568357 34.108512,1.69060043 32.4954924,1.06008084 C30.8824729,0.430009076 28.9658367,0.554053056 27.2659416,1.09277114 C25.5570902,1.63417609 24.0676668,2.59518107 22.6906443,3.68739503 C20.8420755,5.15263656 19.19547,6.8534273 17.697986,8.67333609 C15.8234442,10.950909 14.1817646,13.4152195 12.6999541,15.9659578 C10.921244,19.0285455 9.37270939,22.2156249 8.02165998,25.4837583 C6.67016275,28.7527874 5.51615071,32.1028705 4.56231072,35.511617 C3.60847072,38.9208113 2.85480279,42.3877734 2.3523575,45.8878735" id="Stroke-610"></path>
            <path d="M2.32235408,46.0996887 C1.90364967,49.0789833 1.66227889,52.0887291 1.69855168,55.1047443 C1.72721166,57.5166608 1.93365309,59.931712 2.43251588,62.2827261 C2.8037522,64.0363586 3.33799215,65.7541662 4.22510813,67.3582296 C4.96265482,68.6922621 5.94381136,69.9470319 7.21380676,70.7450332 C8.22854921,71.3818222 9.42734248,71.7270854 10.6216576,71.7548498 C11.8231378,71.7830619 13.019692,71.4906406 14.1405659,71.0401415 C15.5440093,70.4754503 16.8283347,69.6626711 18.0195152,68.7428649 C19.9280908,67.2691149 21.5988781,65.5190648 23.1227831,63.6534792 C25.030463,61.3190342 26.7084154,58.8054643 28.2166469,56.1978539 C30.0267038,53.0676466 31.5922552,49.8022 32.9540521,46.4556994 C34.3162969,43.1083032 35.474787,39.6785095 36.4223576,36.1896047 C37.3703761,32.6998042 38.107475,29.1508925 38.5749909,25.5688427" id="Stroke-611"></path>
            <path d="M9.34539285,72.5765851 C10.5329908,72.9460302 11.8428415,72.9433433 13.0743251,72.6930163 C14.7218261,72.3589484 16.2296098,71.5815464 17.6196189,70.6523361 C20.0579563,69.0214041 22.1340137,66.918478 23.995569,64.6552351 C26.6573648,61.4197919 28.8803045,57.854759 30.8121664,54.1482174 C33.1318336,49.6974119 35.0319008,45.0432997 36.5553579,40.261561 C38.0792628,35.4775833 39.2261098,30.5668747 39.8727507,25.596607" id="Stroke-612"></path>
            <path d="M39.8727507,25.596607 C40.3492228,21.8403583 40.5722333,17.8024356 40.2636907,14.0085707 C40.048293,11.3534921 39.5865987,8.7064742 38.6000684,6.23231178 C38.0371684,4.82125553 37.3036521,3.46751924 36.2566671,2.35828842 C35.4738914,1.52894022 34.5155733,0.836174744 33.4533627,0.44702594" id="Stroke-613"></path>
            <path d="M63.8517507,33.5949808 C64.3031454,29.7370786 64.4343543,25.8227522 64.0080371,21.9357423 C63.7093464,19.2161788 63.137938,16.5087062 61.9673569,14.0367828 C61.2996689,12.6261744 60.4371826,11.2921419 59.263019,10.2608303 C58.3844115,9.4883543 57.3311572,8.88604689 56.2093876,8.58646053" id="Stroke-615"></path>
            <path d="M32.9219979,79.9381699 C34.1104915,80.2950763 35.5849488,80.3358272 36.8182236,80.1190861 C38.4661725,79.8297994 39.9990337,79.1141955 41.4150159,78.2337967 C43.8976867,76.6919793 46.0230034,74.6441341 47.9257575,72.4247768 C50.6466644,69.2520274 52.913042,65.7299844 54.8726682,62.053894 C57.2254735,57.6398091 59.1362882,53.0040572 60.6472065,48.2348573 C62.1590205,43.4625226 63.2986619,38.3285309 63.8794744,33.3672195" id="Stroke-616"></path>
            <line x1="2.3523575" y1="45.8878735" x2="2.32235408" y2="46.0996887" id="Stroke-617"></line>
            <line x1="39.0984834" y1="79.4361725" x2="451.05078" y2="204.096342" id="Stroke-618"></line>
            <line x1="61.3283289" y1="12.825003" x2="465.691104" y2="160.401962" id="Stroke-619"></line>
            <path d="M345.386356,172.164645 C345.590111,172.223309 345.767444,172.388103 345.866859,172.581558 C345.967616,172.776357 345.989111,173.000263 345.961795,173.215213 C345.934031,173.431058 345.857007,173.637947 345.725798,173.81349 C345.595037,173.988136 345.410986,174.131884 345.204097,174.186517" id="Stroke-694"></path>
            <line x1="463.633407" y1="158.07916" x2="473.276147" y2="161.772715" id="Stroke-700"></line>
            <line x1="458.002617" y1="207.559274" x2="448.072829" y2="204.725518" id="Stroke-701"></line>
            <line x1="450.40593" y1="204.166201" x2="448.355398" y2="203.577776" id="Stroke-702"></line>
            <path d="M9.34584066,72.577033 C8.19048518,72.219231 7.1197662,71.5461693 6.23712835,70.705178 C5.05803882,69.5811693 4.21391282,68.1580221 3.57398919,66.663225 C2.45177181,64.0430758 1.9560437,61.2039465 1.73437666,58.3616824 C1.41732562,54.2991301 1.66003983,50.2294128 2.2238354,46.2197024" id="Stroke-705"></path>
            <path d="M2.25428663,46.0052003 C2.96093428,41.0832964 4.15166693,36.2254296 5.71632276,31.4956372 C7.27963516,26.7680837 9.21687074,22.1690524 11.5831104,17.7907925 C13.5530363,14.1456012 15.8207573,10.6531138 18.5412164,7.502755 C20.4439705,5.3008624 22.5679437,3.26510813 25.0752443,1.78598442 C26.5055564,0.941858423 28.0599126,0.27820074 29.7105484,0.0699680657 C30.9456144,-0.0863183928 32.2348657,0.0135437282 33.3982818,0.426874391 L56.7646747,8.75931604" id="Stroke-706"></path>
            <line x1="33.035554" y1="79.9381699" x2="9.34584066" y2="72.577033" id="Stroke-707"></line>
            <line x1="2.2238354" y1="46.2197024" x2="2.25428663" y2="46.0052003" id="Stroke-708"></line>
            <line x1="213.852717" y1="132.370262" x2="39.0129512" y2="79.4715496" id="Stroke-712"></line>
            <path d="M213.881825,132.37877 C213.845104,132.367127 213.807936,132.355484 213.771215,132.343841 C213.697774,132.319659 213.624781,132.295477 213.55134,132.269952 C213.515067,132.257413 213.478794,132.244426 213.442073,132.23144" id="Stroke-715"></path>
            <path d="M456.528867,157.058148 C457.179538,157.009785 457.833344,156.998589 458.489836,157.02501 C459.803269,157.077404 461.091177,157.286085 462.354903,157.651052 C462.986319,157.833759 463.60206,158.053187 464.202129,158.309783" id="Stroke-842"></path>
            <line x1="343.059524" y1="171.460684" x2="343.849913" y2="171.699816" id="Stroke-930"></line>
            <line x1="343.975748" y1="171.73788" x2="344.388183" y2="171.86282" id="Stroke-931"></line>
            <line x1="344.5485" y1="171.911183" x2="345.397104" y2="172.16778" id="Stroke-932"></line>
            <path d="M345.386356,172.164645 C345.590111,172.223309 345.767444,172.388103 345.866859,172.581558 C345.967616,172.776357 345.989111,173.000263 345.961795,173.215213 C345.934031,173.431058 345.857007,173.637947 345.725798,173.81349 C345.595037,173.988136 345.410986,174.131884 345.204097,174.186517" id="Stroke-933"></path>
            <line x1="450.40593" y1="204.166201" x2="448.355398" y2="203.577776" id="Stroke-942"></line>
            <line x1="2.2238354" y1="46.2197024" x2="2.25428663" y2="46.0052003" id="Stroke-948"></line>
            <line x1="213.852717" y1="132.370262" x2="39.0129512" y2="79.4715496" id="Stroke-952"></line>
        </g>
    </g>
</svg>