<svg height="960" viewBox="0 0 960 960" width="960" xmlns="http://www.w3.org/2000/svg"><g fill="none" fill-rule="evenodd" stroke="#000" stroke-linejoin="round"><path d="m485.000007 22-.001007 755.048.637581.012923c21.625485.468487 41.215071 3.608016 56.259912 8.34726l.774115.246555c9.931968 3.198328 18.035846 7.191077 23.948917 11.463771 10.474283 7.568557 15.171732 16.611516 16.166744 25.019263l.213701 60.954192c.007892 5.730928-1.538777 11.46798-5.033134 16.945074-2.236937 6.045022-6.533835 12.060922-13.538595 17.396358-5.745453 4.376237-13.653804 8.472495-23.384238 11.752105-15.961951 5.379923-37.414752 8.814499-61.044003 8.814499-23.629173 0-45.08191-3.434553-61.043718-8.814362-9.730459-3.27958-17.638775-7.375799-23.384121-11.751952-7.011131-5.340284-11.309332-11.362243-13.544651-17.411318-3.30856-5.196478-4.862585-10.632414-5.016325-16.057293l-.011485-61.919931c1.159474-9.185318 6.969303-19.403062 20.200423-27.483737 4.131088-2.522989 9.100954-4.904669 14.799632-7.04153l.000252-765.519877z" stroke-width="40"/><g stroke-linecap="round" stroke-width="20"><path d="m475.263529 32v785.207585c-8.820173 5.964747-17.674116 8.792415-26.489411 8.792415-8.815296 0-17.669239-2.827668-26.489412-8.792415v-785.207585z"/><path d="m405.403652 801.512054c-10.338607 5.848525-16.403652 12.96577-16.403652 20.64324 0 19.921236 40.834791 36.070588 91.207059 36.070588 50.372267 0 91.207059-16.149352 91.207059-36.070588s-40.834792-36.070588-91.207059-36.070588"/></g></g></svg>