<?xml version="1.0" encoding="UTF-8"?>
<svg width="500px" height="500px" viewBox="0 0 500 500" version="1.1" xmlns="http://www.w3.org/2000/svg" xmlns:xlink="http://www.w3.org/1999/xlink">
    <title>Artboard</title>
    <g id="Artboard" stroke="none" stroke-width="1" fill="none" fill-rule="evenodd">
        <g id="apple-tv" transform="translate(6.000000, 76.000000)" fill="#000000">
            <path d="M487.832686,163.448504 C487.665371,160.441787 487.386514,156.18227 486.968229,153.064193 C486.257143,147.774597 484.472457,139.241644 484.472457,139.241644 L459.640229,41.8017253 C456.130485,17.8385951 435.571968,0.055569469 411.314286,0 L77.0482286,0 C52.7057426,0.0371595099 32.0079797,17.7490009 28.2482286,41.7599653 L3.91794286,139.199884 C3.91794286,139.199884 1.74285714,148.804676 1.31062857,152.618753 C1.03177143,155.082591 0.752914286,160.400027 0.5856,163.838264 L0,163.267544 L0,292.612077 C0.0922780634,323.277784 25.0552817,348.069003 55.7714286,347.999856 L432.228571,347.999856 C462.916297,347.999856 487.838889,323.249047 488,292.612077 L488,163.267544 L487.832686,163.448504 Z M15.1698286,154.205632 C15.4068571,152.089794 16.6896,145.951079 17.4564571,142.582442 L41.8425143,45.1425225 L42.0098286,44.4604431 L42.1074286,43.7644436 C44.783755,26.5722548 59.6210772,13.8990534 77.0482286,13.9199625 L411.314286,13.9199625 C428.603198,14.0076315 443.241566,26.676956 445.781029,43.7505236 L445.892571,44.474363 L446.073829,45.1842825 L470.766629,142.081322 C471.240686,144.30852 472.565257,150.976195 473.095086,154.901631 C473.624914,158.827068 474.057143,165.327703 474.057143,167.039861 C474.057143,190.103253 455.329854,208.799826 432.228571,208.799826 L56.1618286,208.799826 C33.2819635,208.80196 14.6459485,190.450786 14.3332571,167.610581 C14.5145143,163.699064 14.8770286,156.59987 15.1558857,154.205632 L15.1698286,154.205632 Z M474.057143,292.612077 C474.009197,303.665277 469.562205,314.246113 461.69567,322.02403 C453.829135,329.801946 443.188333,334.138935 432.117029,334.080398 L55.7714286,334.080398 C44.7093134,334.142672 34.0778268,329.803358 26.2281776,322.021441 C18.3785284,314.239524 13.9575112,303.656218 13.9428571,292.612077 L13.9428571,202.897751 C24.4055469,215.389496 39.8517533,222.641584 56.1618286,222.719815 L432.228571,222.719815 C448.31648,222.659624 463.583031,215.618046 474.057143,203.426711 L474.057143,292.612077 Z M148.672686,98.8319179 C154.755262,94.3247676 162.199319,92.0308665 169.768229,92.3312833 C173.316331,92.4258985 176.844655,92.8924596 180.295086,93.7232821 C182.202929,94.1888316 184.148807,94.4823309 186.109257,94.6002414 C187.988769,94.4812193 189.854627,94.2017997 191.6864,93.7650421 C196.092556,92.7432314 200.603964,92.2433052 205.127314,92.2756033 L205.127314,92.2756033 C211.75862,92.0558222 218.299758,93.857147 223.880457,97.439919 L224.270857,97.7322388 L223.713143,97.9549586 L223.476114,98.0384785 C220.3808,99.0685577 213.186286,102.033515 213.283886,107.281351 C213.381486,113.726305 223.043886,116.496383 225.957943,117.192383 C226.087795,117.212783 226.214376,117.250227 226.3344,117.303743 L226.655086,117.470782 L226.473829,117.749182 C224.651086,120.554204 222.319883,122.994884 219.6,124.945816 C215.241657,128.863463 209.636354,131.116698 203.774857,131.307251 C201.100569,131.304831 198.436505,130.977628 195.841371,130.332852 C193.104879,129.650895 190.296092,129.300373 187.475657,129.288853 C184.502605,129.285343 181.539742,129.635818 178.649829,130.332852 C176.241878,130.917853 173.779112,131.249104 171.301943,131.321171 L170.911543,131.321171 C164.987192,130.995427 159.351056,128.663163 154.933029,124.709176 C145.5216,117.777022 140.139657,106.348712 148.672686,98.8319179 Z M283.207314,99.0963976 L268.999543,99.0963976 L268.999543,120.15734 C268.999543,123.303258 271.509257,124.653496 277.365257,124.667416 C278.759543,124.667416 281.408686,124.569976 282.273143,124.500377 L283.123657,124.500377 L283.123657,131.014931 L282.579886,131.084531 C279.798721,131.335382 277.006409,131.442245 274.214171,131.404691 C259.476571,131.404691 253.4672,128.328373 253.4672,120.83942 L253.4672,99.1242376 L242.605714,99.1242376 L242.605714,92.5818431 L253.495086,92.5818431 L253.495086,83.5199306 L269.055314,83.5199306 L269.055314,92.5400831 L283.263086,92.5400831 L283.207314,99.0963976 Z M332.007314,131.195891 L316.112457,131.195891 L288.617143,92.5818431 L305.139429,92.5818431 L324.101714,122.523738 L343.064,92.637523 L359.293486,92.637523 L332.007314,131.195891 Z M189.971429,83.8679303 C194.64742,81.3640851 199.850304,79.9999123 205.1552,79.8868136 L205.852343,79.8868136 L205.922057,80.2487333 C206.493714,83.032731 204.527771,86.1229684 200.637714,88.6007264 L200.637714,88.6007264 C196.299177,91.0317574 191.405089,92.3024209 186.429943,92.2895233 L185.230857,92.2895233 L184.631314,92.2895233 L184.547657,91.9832836 C183.725029,88.8930461 186.959771,85.7192888 189.957486,83.9514502 L189.971429,83.8679303 Z" id="Shape"></path>
        </g>
    </g>
</svg>