<?xml version="1.0" encoding="UTF-8"?>
<svg width="500px" height="500px" viewBox="0 0 500 500" version="1.1" xmlns="http://www.w3.org/2000/svg" xmlns:xlink="http://www.w3.org/1999/xlink">
    <title>Artboard Copy 5</title>
    <g id="Artboard-Copy-5" stroke="none" stroke-width="1" fill="none" fill-rule="evenodd">
        <g id="spotlight_t3" transform="translate(4.995496, 21.997345)" stroke="#000000">
            <path d="M245.135793,380.916872 C291.528043,381.721225 335.069404,376.837976 367.249302,367.574633 C398.291821,358.638697 415.79144,346.406942 416.004504,334.450035 C416.211679,322.492804 399.152842,309.66216 368.443465,299.655658 C336.608676,289.282446 293.265436,282.89279 246.873214,282.088438 C200.480964,281.284085 156.939603,286.167334 124.759706,295.430676 C93.7171866,304.366613 76.2175668,316.598368 76.0045036,328.555275 C75.7973277,340.512506 92.8561654,353.34315 123.565542,363.349652 C155.400332,373.722864 198.743571,380.11252 245.135793,380.916872 Z" id="Oval" stroke-width="11"></path>
            <path d="M246.818636,417.913494 C355.614726,419.825744 444.342315,390.747354 445.004504,352.96509 C445.652189,315.182827 357.986462,283.004066 249.190372,281.091816 C140.394281,279.179566 51.6666916,308.257956 51.0045036,346.040219 C50.3568179,383.822483 138.022545,416.001244 246.818636,417.913494 Z" id="Oval" stroke-width="15" stroke-linejoin="round"></path>
            <path d="M490.999855,340.002655 C491.40413,316.623248 465.41578,294.953205 422.899219,278.674073 C421.286228,278.056476 419.649447,277.446638 417.989417,276.84476 M349.20709,259.640651 L345.708736,259.088065 C315.532939,253.898701 282.117482,250.726344 246.927041,250.111687 C111.381651,247.744169 0.830666007,284.219492 0.00450358735,331.581602" id="Shape" stroke-width="15" stroke-linejoin="round"></path>
            <path d="M419.312308,285.509493 L409.744888,256.327441 C427.402445,266.872498 438.15565,276.764235 442.004504,286.002655 M57.0045036,277.428555 C66.139709,255.579431 92.6943473,241.123712 136.668417,234.061399 C180.642488,226.999086 226.080505,223.655646 272.98247,224.031081 C296.743717,224.937747 317.80389,226.886962 336.16299,229.878725 L359.909905,277.636492 L394.937196,284.942826" id="Shape" stroke-width="7" stroke-linejoin="round"></path>
            <path d="M244.004504,0 C328.274931,0.135937262 402.004504,16.002655 426.004504,47.002655 C450.004504,78.002655 490.945913,324.242354 490.985165,343.880859 L490.980622,344.476339 C491.012464,348.075236 491.012464,350.790174 490.980622,352.621155 C490.149626,399.868633 379.575135,436.255674 244.000925,433.893887 C108.426715,431.532099 -0.808017569,391.315843 0.0090576353,344.068365 C0.0445953354,342.222382 0.0445953354,339.485339 0.0090576353,335.857236 C0.372465216,315.183162 51.7721082,69.5540063 72.0045036,47.002655 C92.2368989,24.4513037 159.734076,-0.130627322 244.004504,0 Z" id="Path" stroke-width="16" stroke-linejoin="round"></path>
            <polygon id="Path-9" stroke-width="9" stroke-linejoin="round" points="332.004504 223.876717 358.915996 278.209628 420.004504 291.002655 398.107515 229.251425 376.004504 229.251425 335.927629 219.002655"></polygon>
            <polyline id="Path-10" stroke-width="15" stroke-linejoin="round" points="82.0045036 418.002655 82.0045036 427.476377 136.52049 440.002655 142.004504 431.481622"></polyline>
        </g>
    </g>
</svg>