<svg height="960" viewBox="0 0 960 960" width="960" xmlns="http://www.w3.org/2000/svg"><g fill="none" fill-rule="evenodd" stroke="#000" stroke-linecap="round" stroke-linejoin="round"><path d="m482 297c223.675324 0 405 38.727369 405 86.5 0 1.803053-.258295 3.593222-.767413 5.36891l-.009434 18.347164c0 .151917.005282.303253.015663.453997l.013305-.00167c7.480616 5.304752 13.05209 10.80809 16.527422 16.466895l-.010143.002357c.16297.14387.310776.283243.44187.418033 2.955665 3.038978 12.72963 13.06863 18.663717 21.880046 12.443453 11.585732 19.125013 23.858818 19.125013 36.564268 0 5.827715-1.405706 11.564467-4.128301 17.185649l-.011202-.000449c-2.334977 11.984533-2.060972 16.032303-7.946989 24.317945-26.229259 48.704004-216.987774 86.496855-448.413508 86.496855-.278844 0-.557629-.000055-.836354-.000165l-.663646.000165c-1.953154 0-3.903477-.003358-5.850898-.010054-.043652-.002823-.089587-.002984-.13552-.003146l.13552.003146c-1.692499-.00582-3.382807-.014161-5.070876-.025011-1.412113-.009587-2.822612-.019273-4.231464-.030361-.058713-.002648-.120373-.003202-.182029-.003759-225.740481-1.794108-409.1666001-39.561158-432.2212167-87.673365l.0135699-.000694c-.8050021-.871004-1.6975437-2.01625-2.72524-3.50742-3.9535425-5.736527-7.3916633-15.78258-9.5063674-24.111335-1.4726348-4.157021-2.2254788-8.373153-2.2254788-12.638001l.0232569.810134c-.0154311-.266245-.0232569-.510066-.0232569-.72982l.001-.050314-.001-.03c0-9.615808 3.8270962-18.983964 11.0823013-27.993928l.012318.001892c8.0909173-13.815917 21.3137694-30.053446 41.8857242-42.539625 2.16613-1.314736 4.9465231-3.629566 5.5390116-8.628585.2494689-2.10485.3593018-5.900421.4632535-9.829421l.0259429-.984129c.1342047-5.089714.2771936-10.185526.7172112-11.931442.0120717-.047898.1590343-.094225.4408876-.13898 6.3057598-46.595638 185.1418017-83.955782 404.8333497-83.955782z" stroke-width="40"/><g stroke-width="20"><path d="m898.133785 432.992289c-2.314829-4.932268-10.132881-11.191067-23.454157-18.776398-63.111973-35.936886-215.774932-61.282558-394.079628-61.282558-182.728615 0-338.527313 26.618977-398.610887 63.976783"/><path d="m932.266667 512.733333c0-54.197543-202.247903-98.133333-451.733334-98.133333s-451.733333 43.93579-451.733333 98.133333"/></g></g></svg>