<?xml version="1.0" encoding="UTF-8"?>
<svg width="500px" height="500px" viewBox="0 0 500 500" version="1.1" xmlns="http://www.w3.org/2000/svg" xmlns:xlink="http://www.w3.org/1999/xlink">
    <title>Artboard</title>
    <g id="Artboard" stroke="none" stroke-width="1" fill="none" fill-rule="evenodd">
        <g id="aqara_fp" transform="translate(9.000000, 69.000000)" stroke="#000000" stroke-width="16">
            <g id="Presence-Sensor-FP1E-User-Manual-EN-Online" transform="translate(242.000000, 182.000000) scale(-1, 1) translate(-242.000000, -182.000000) ">
                <path d="M318.755098,107.996425 C318.755098,107.996425 332.510594,90.1598144 378.018831,87.7795853 C423.52707,85.4027134 452.138769,79.9674653 467.169474,106.126485 C481.565931,131.191069 504.543212,304.860506 446.450658,347.523343 C438.789327,353.149949 427.262095,359.585632 415.801979,361.878575 C394.136822,366.212673 333.208604,363.788801 316.036886,355.677893 C291.586401,344.125893 288.190314,318.64502 288.190314,318.64502 C288.190314,318.64502 203.133768,346.341621 171.05551,353.663595 C151.07833,358.225981 116.681202,363.832444 82.3813934,338.009141 C66.0217839,325.695064 37.913458,292.898932 20.4866988,253.324686 C1.3719633,209.92663 -5.90344865,158.491525 5.28820213,119.679355 C17.5704935,77.0870189 60.142392,57.4912542 103.268,38.8556384 C135.265719,25.0308382 171.05551,9.63824255 189.616536,3.48120428 C205.764729,-1.88018618 227.184911,-2.5079758 253.377065,12.2501159 C266.122459,19.4344463 282.485425,37.351629 294.049571,56.0980313 C309.697747,81.4748319 318.755098,107.996425 318.755098,107.996425 Z" id="Stroke-8"></path>
                <path d="M360.147762,89.6931686 C405.656,87.3162967 416.924835,82.7941972 434.905304,112.159308 C452.224678,140.443413 453.412637,218.077824 445.60365,276.76776 C440.824966,312.675983 428.908459,330.992668 400.518244,347.607272 C381.796139,358.565054 351.419281,360.565924 339.751104,361.240714" id="Stroke-9"></path>
                <path d="M318.755098,107.996425 C318.755098,107.996425 333.607946,143.756933 342.953896,181.998385 C349.574924,209.107482 350.950809,235.085215 350.38032,252.56261 C348.47086,311.000759 288.190314,318.64502 288.190314,318.64502" id="Stroke-10"></path>
                <path d="M332.990475,147.242676 L399.741037,131.55465 C400.922285,131.279363 402.053195,132.169011 402.063262,133.380947 L403.308368,327.220224 C403.314982,328.170301 402.616972,328.97602 401.680699,329.103592 L324.084136,339.796159 C322.94987,339.950588 321.939769,339.071012 321.939769,337.922862 L321.939769,305.365088" id="Stroke-11"></path>
                <line x1="343.36834" y1="183.729339" x2="402.085075" y2="137.047977" id="Stroke-12"></line>
                <line x1="349.624925" y1="228.681425" x2="402.411932" y2="188.009387" id="Stroke-13"></line>
                <line x1="335.056988" y1="151.314916" x2="402.076015" y2="135.683962" id="Stroke-14"></line>
                <line x1="353.876746" y1="225.094296" x2="353.876746" y2="335.689341" id="Stroke-15"></line>
            </g>
        </g>
    </g>
</svg>