<svg height="960" viewBox="0 0 960 960" width="960" xmlns="http://www.w3.org/2000/svg"><path d="m878.965122 219.480029c16.775513 0 32.158365 9.331283 39.909046 24.208943l10.348039 19.864057.045499.038286c5.343559 4.533784 9.691956 10.302496 12.57976 16.996016l.21925.516705 8.787438 21.060209c7.075037 16.956223 8.533717 35.732615 4.162316 53.578077l-63.132458 257.726944c-6.904632 28.186924-32.170592 48.010763-61.190872 48.010763h-675.133172c-28.1061 0-52.812572-18.617739-60.559556-45.635087l-74.6575054-260.365572c-5.4608627-19.044578-4.1787598-39.390561 3.6296016-57.598978l4.3052564-10.039482c4.3372788-10.114155 11.703529-18.3075 20.7717438-23.705223l.2026989-.119658 17.3358859-25.105244c8.3014408-12.022317 21.9151395-19.257118 36.5022418-19.430756zm35.779186 100.15704-856.8556881 3.19741c-1.4128716 7.131362-1.1242234 14.543403.9047984 21.619549l74.6575057 260.365573c2.828264 9.863476 11.848087 16.660428 22.109044 16.660428h675.133172c10.594705 0 19.818786-7.237274 22.339525-17.527739l63.132458-257.726944c2.161702-8.824759 1.657985-18.075125-1.420815-26.588277zm-9.361836-22.57404-831.9616403.035601c-3.6881423.57421-6.8789606 3.005138-8.3807422 6.507161l-1.8056171 4.207238 845.3179996-3.154zm-26.41735-37.583h-775.347126c-1.642883 0-3.180938.807066-4.1144334 2.158973l-14.1280902 20.460027 808.3869996-.036-10.363012-19.893117c-.861186-1.653073-2.570392-2.689883-4.434338-2.689883z"/></svg>