<svg height="960" viewBox="0 0 960 960" width="960" xmlns="http://www.w3.org/2000/svg"><g fill="#000" fill-rule="nonzero"><path d="m919.644514 218.822084 3.122771 4.969442c10.812015 17.205773 16.254874 37.241753 15.634562 57.553166l-5.360522 175.524276c-.78579 25.729809-19.312675 47.472723-44.591642 52.33218l-775.514583 149.079652c-6.961904 1.33831-13.7966242.790796-20.0172023-1.257016l-.3628977-.122506-.4263395-.104776c-5.0350613-1.272391-9.8727629-3.291046-14.3470056-6.005903l-.581522-.358056c-23.1410667-14.45717-37.2001329-39.817633-37.2001329-67.103504l-.0025782-97.645928c-3.2127474.582397-5.1489043.927569-6.7636729 1.207877l-.2340136.040558c-.0386571.006689-.0771509.013345-.1154953.01997l-.2781012.047955c-.1379176.023737-.274286.047139-.4097831.07033l-.2700332.046135c-.2243941.03827-.4476228.076179-.6728236.114292l-.2713884.045869-.2744865.046282c-.0921457.015521-.1850086.031147-.2787894.046914-10.9546687 1.841763-28.64072944.995334-43.2666354-.787244-10.7843835-1.31438-16.3201931-14.064446-14.6871199-28.596678.3090179-2.749859 1.7105153-6.857899 4.5593358-14.053753.0350593-.088557.0712422-.176334.1085257-.263322l.0301504-.073786c2.8899762-6.866888 9.9308376-11.066592 17.37151809-10.317074l.05088518.005186.81814024.078201c7.26525909.658616 15.25636619.468213 23.97070399-.589364l1.0491919-.131073.4306234-.055506c4.4059545-.569761 9.6774522-1.308051 19.1356497-2.678158l.0001963-66.894944c0-29.718229 23.6095568-53.92215 53.095326-54.87842l.055674-.00108 766.66183-116.703026c23.618894-3.595371 47.120149 7.164245 59.831684 27.392832zm-824.6541976 129.448013c-8.133692 0-14.7273521 6.59366-14.7273521 14.727352l.0021833 61.080341c3.6186906-.504527 6.3324635-.865351 8.3989237-1.115144-1.7890696-3.728327-2.8796641-8.686732-2.8796641-14.12911 0-11.587753 4.9440683-20.981483 11.0428857-20.981483 6.0988171 0 11.0428861 9.39373 11.0428861 20.981483 0 6.822757-1.71398 12.884902-4.368471 16.716845 6.701625 4.644529 11.375787 13.845846 11.375787 22.603928 0 6.178114-.491781 10.586336-2.199666 14.88512-1.899221 4.78038-5.175043 8.472106-9.632542 10.613983 1.555107 3.315759 2.500074 7.688368 2.500074 12.480325 0 10.367989-4.42364 18.772905-9.8804771 18.772905-5.4568366 0-9.8804767-8.404916-9.8804767-18.772905 0-3.257516.4366804-6.321247 1.2048856-8.991396-1.9545371.345005-4.189281.744069-6.7263064 1.200825l-.0000221 105.676408c0 4.695537.8425499 9.276329 2.4241875 13.554657l.048547.128183c3.0296093 7.667299 8.4537206 14.305396 15.6580699 18.806247 1.8751273 1.171469 4.0291733 1.82072 6.2393443 1.880603.243334.006593.485222.006135.725467-.001187l.025126.579771c.069972-.001963.139803-.004516.209489-.007653l3.46815-.666268c4.672113-1.628007 8.080083-6.010964 8.220488-11.250029l5.901859-220.222011c.408487-15.242283-7.749349-29.430749-21.127654-36.746144-2.1666158-1.184727-4.5963486-1.805646-7.0657216-1.805646zm770.8421426-117.296388-739.687952 112.597167c11.157798 11.537125 17.47529 27.246117 17.032007 43.78681l-5.90186 220.222011c-.049487 1.846557-.253216 3.652702-.598523 5.40643l744.222478-143.065779c6.894264-1.325307 11.94705-7.255192 12.161357-14.272413l5.360522-175.524276c.377767-12.369539-2.936905-24.571342-9.521363-35.049563l-3.122771-4.969443c-4.237178-6.742862-12.07093-10.329401-19.943895-9.130944zm-770.1675751 315.895899c5.4568371 0 9.8804771 8.404917 9.8804771 18.772906 0 10.36799-4.42364 18.772906-9.8804771 18.772906-5.4568366 0-9.8804767-8.404916-9.8804767-18.772906 0-10.367989 4.4236401-18.772906 9.8804767-18.772906zm0-39.754388c5.4568371 0 9.8804771 8.404916 9.8804771 18.772905 0 10.36799-4.42364 18.772906-9.8804771 18.772906-5.4568366 0-9.8804767-8.404916-9.8804767-18.772906 0-10.367989 4.4236401-18.772905 9.8804767-18.772905zm-2.9543894-64.502598-.02578.003653c-4.0828015.458845-15.4620893 2.069225-36.458063 5.137864-.0169414.002476-.0169414.002476-.0338828.004952-17.53313 2.562529-25.512202 3.709351-31.6396568 4.514139l-.4562077.059735-.4499862.058553c-.2235581.028997-.4450539.057589-.6648937.085833-9.753743 1.253082-18.88747285 1.579302-27.40353626.962381l-.76599357-.05911-.14021239.36464c-.64813855 1.684173-1.17651338 3.11701-1.58297341 4.290594l-.10782843.313634c-.26860361.787325-.46788473 1.419822-.59444215 1.876002-.01809662.06523-.03371851.123304-.04684285.173599l-.01570077.058531-.0190655.184094c-.26039378 2.650704-.11023048 4.776137.28722079 6.291958l.03884471.143948.3792201.041281c11.88846401 1.258778 25.85673713 1.800275 33.65084803.599829l.4512936-.072631c.2722457-.045772.5371745-.090435.8000748-.134946l.2624201-.044494c.1310678-.022257.2620693-.044556.3936654-.067014l.2641811-.045167.1157115-.019835.3512367-.060407c3.7855333-.652662 8.9679437-1.598659 29.8118916-5.412532.1990036-.036412.1990036-.036412.39802-.072823 20.5301604-3.756023 30.4695402-5.527775 34.5338911-6.097745l.033546-.005516.013514-.030644c.5024825-1.264759.7665282-3.511632.7853978-7.082724l.0010889-.417945c0-1.526068-.6735408-3.471248-1.7535416-5.003521-.1255639-.178146-.2495968-.340438-.3681154-.484918zm202.6147175-31.148753c12.141117 5.153599 16.88007 19.779336 11.536695 32.367536-5.343374 12.588201-19.156201 19.339174-31.297319 14.185576-12.141117-5.153599-16.88007-19.779336-11.536696-32.367536 5.343375-12.588201 19.156202-19.339174 31.29732-14.185576zm-12.887223 22.000198c-1.25422 2.954757-.406618 5.570693.941222 6.142817s3.818379-.635344 5.072599-3.590101.406619-5.570693-.941221-6.142817-3.81838.635344-5.0726 3.590101z"/><path d="m847.89092 282.885512c10.387642-1.486115 20.013224 5.73 21.499339 16.117643.153797 1.075008.215147 2.161223.183376 3.246713l-4.235521 144.712206c-.26226 8.960463-6.751706 16.518594-15.569374 18.133344l-148.620276 27.21634c-10.321765 1.890191-20.221511-4.944951-22.111702-15.266716-.206769-1.1291-.310791-2.274616-.310791-3.422493v-150.060139c0-9.453883 6.950558-17.469598 16.309152-18.808491zm1.656051 19.966064-150.821 21.577v147.994l146.644-26.855z"/></g></svg>