<?xml version="1.0" standalone="no"?>
<!DOCTYPE svg PUBLIC "-//W3C//DTD SVG 20010904//EN"
 "http://www.w3.org/TR/2001/REC-SVG-20010904/DTD/svg10.dtd">
<svg version="1.0" xmlns="http://www.w3.org/2000/svg"
 width="1356.000000pt" height="1104.000000pt" viewBox="0 0 1356.000000 1104.000000"
 preserveAspectRatio="xMidYMid meet">

<g transform="translate(0.000000,1104.000000) scale(0.100000,-0.100000)"
fill="#000000" stroke="none">
<path d="M4800 10009 c-356 -40 -755 -221 -1118 -508 l-91 -72 -53 27 c-29 14
-62 34 -73 44 -61 56 -243 95 -404 87 -230 -11 -448 -100 -699 -286 -112 -83
-346 -318 -443 -446 -340 -446 -571 -984 -654 -1525 -22 -145 -31 -468 -16
-600 30 -259 108 -482 223 -640 64 -88 235 -248 300 -281 l58 -29 0 -209 c0
-361 37 -610 131 -877 111 -318 265 -524 514 -689 362 -239 289 -202 3005
-1522 2716 -1321 3216 -1560 3324 -1588 144 -38 239 -49 411 -49 505 1 1017
225 1504 658 191 170 372 383 628 738 238 330 305 437 438 698 306 605 508
1260 577 1875 16 143 16 504 0 625 -63 473 -240 835 -552 1126 -160 149 -291
231 -680 424 -590 294 -1068 545 -2330 1225 -1285 693 -1564 839 -2390 1258
-500 253 -643 320 -911 426 -183 72 -275 96 -418 110 -116 12 -173 12 -281 0z
m478 -409 c95 -23 285 -98 493 -196 173 -81 915 -459 1379 -702 531 -277 1976
-1054 1992 -1070 6 -6 -10 -12 -39 -17 -26 -4 -100 -22 -163 -40 -893 -258
-1803 -1234 -2283 -2451 -305 -773 -405 -1556 -282 -2206 30 -160 102 -383
162 -502 19 -37 33 -69 31 -71 -3 -3 -257 119 -1593 770 -528 257 -1129 550
-1336 650 -411 200 -670 335 -709 370 -14 13 -50 35 -80 50 -97 48 -200 126
-246 186 -514 669 -443 2060 168 3284 66 132 241 421 341 565 308 442 660 805
1032 1065 216 151 402 243 599 295 199 53 364 59 534 20z m-2058 -283 c36 -9
159 -73 156 -81 -1 -5 -10 -14 -19 -20 -13 -8 -41 1 -128 44 -61 30 -113 59
-116 64 -5 7 67 3 107 -7z m-75 -84 l154 -77 -20 -23 -21 -22 -164 82 c-154
77 -162 82 -147 99 9 10 22 18 29 18 8 0 83 -35 169 -77z m-132 -69 c105 -53
194 -98 196 -100 3 -2 -10 -20 -28 -38 l-34 -35 -204 102 -204 102 37 33 c21
17 39 32 41 32 2 0 90 -43 196 -96z m-140 -105 c122 -61 224 -113 226 -115 8
-7 -56 -79 -70 -79 -8 0 -114 51 -237 114 l-222 115 37 38 c20 21 38 38 40 38
2 0 103 -50 226 -111z m-131 -125 c134 -69 245 -128 247 -130 2 -2 -13 -25
-33 -52 l-36 -50 -258 131 c-141 71 -258 131 -260 132 -4 3 84 95 91 95 4 0
116 -57 249 -126z m-289 -65 c56 -28 175 -89 265 -136 l162 -85 -32 -45 c-18
-25 -38 -48 -45 -50 -6 -3 -134 58 -282 134 l-270 139 24 37 c23 34 50 56 68
57 4 0 53 -23 110 -51z m37 -239 l280 -140 -40 -62 c-22 -34 -42 -64 -45 -66
-5 -5 -573 255 -588 268 -18 16 74 140 103 140 6 0 136 -63 290 -140z m-194
-166 c137 -64 273 -127 301 -139 l53 -24 -36 -60 c-20 -34 -41 -61 -46 -61
-11 0 -589 269 -601 279 -8 8 62 121 74 121 4 0 119 -52 255 -116z m-61 -204
c164 -77 300 -142 302 -144 3 -3 -68 -144 -83 -164 -5 -7 -624 271 -624 281 0
10 65 132 83 155 5 6 13 12 17 12 4 0 142 -63 305 -140z m-128 -231 c164 -72
301 -134 306 -138 9 -9 -71 -183 -81 -178 -4 2 -145 64 -314 137 l-306 133 25
56 c14 31 31 71 39 89 8 17 19 32 24 32 5 0 143 -59 307 -131z m-82 -254 c149
-64 273 -120 278 -124 4 -4 -7 -42 -24 -83 l-32 -76 -46 18 c-111 44 -566 232
-570 235 -4 4 37 131 51 157 8 16 12 17 41 4 18 -7 154 -66 302 -131z m-116
-216 c163 -67 299 -125 303 -128 5 -4 -6 -46 -23 -93 -29 -80 -33 -86 -53 -78
-88 34 -572 233 -575 236 -5 5 41 184 48 184 3 0 138 -55 300 -121z m-58 -254
l287 -117 -26 -81 c-15 -45 -27 -83 -28 -85 -1 -2 -555 228 -563 235 -2 1 2
41 9 89 8 56 16 84 24 81 6 -3 140 -57 297 -122z m7794 26 c111 -28 155 -47
445 -199 140 -74 331 -172 423 -219 93 -47 166 -87 164 -89 -2 -3 -49 -15
-103 -29 -286 -69 -584 -218 -877 -439 -843 -632 -1543 -1814 -1751 -2956 -51
-283 -61 -388 -61 -690 0 -184 5 -319 13 -380 34 -241 100 -479 180 -651 l40
-87 -102 48 c-275 130 -623 302 -641 317 -11 10 -60 39 -109 66 -110 60 -184
116 -264 201 -331 354 -466 996 -366 1736 154 1142 820 2329 1662 2963 314
236 624 379 929 427 94 15 326 4 418 -19z m-7740 -306 c77 -32 144 -62 149
-66 9 -8 -11 -106 -24 -114 -4 -3 -125 45 -269 106 l-261 111 0 48 c0 85 -3
84 138 26 70 -30 190 -79 267 -111z m-151 -142 c138 -58 252 -107 254 -109 5
-4 -9 -90 -17 -103 -5 -8 -77 18 -247 90 -131 56 -241 103 -242 105 -8 6 -14
124 -7 124 5 0 121 -48 259 -107z m-14 -212 c118 -51 218 -95 223 -100 7 -7
-6 -87 -16 -97 -3 -3 -102 43 -220 102 l-215 108 -4 43 c-2 26 1 42 7 39 5 -2
107 -45 225 -95z m2 -195 l194 -94 -4 -36 c-2 -20 -6 -36 -8 -36 -2 0 -85 40
-183 89 -160 80 -180 93 -190 122 -11 32 -14 49 -8 49 2 0 91 -42 199 -94z
m9397 59 c86 -21 182 -60 266 -109 83 -49 234 -195 294 -283 136 -204 230
-493 260 -807 15 -150 12 -193 -5 -71 -52 383 -167 642 -378 850 -100 98 -159
138 -287 190 -127 51 -231 70 -389 70 -153 0 -244 -16 -412 -72 -565 -186
-1175 -744 -1607 -1468 -452 -758 -677 -1619 -612 -2335 15 -161 18 -179 58
-330 57 -221 166 -428 296 -566 191 -203 445 -304 728 -291 396 19 791 209
1219 585 l95 83 -90 -86 c-354 -341 -715 -558 -1090 -655 -101 -27 -328 -37
-434 -21 -400 63 -697 380 -821 878 -43 174 -60 306 -67 518 -33 1070 518
2380 1351 3210 411 409 869 670 1271 724 90 13 272 5 354 -14z m-9229 -336 c0
-16 -21 -9 -140 51 -121 60 -160 89 -160 115 0 3 68 -28 150 -71 113 -58 150
-81 150 -95z m9120 101 c211 -26 382 -111 525 -261 153 -162 252 -368 309
-643 150 -718 -90 -1741 -599 -2552 -371 -594 -867 -1082 -1315 -1296 -388
-185 -679 -213 -993 -94 -83 31 -205 115 -271 187 -162 176 -254 371 -318 671
-32 152 -32 155 -32 438 0 246 3 305 22 430 71 454 196 847 407 1275 291 590
641 1043 1100 1421 72 60 265 184 375 242 172 91 402 165 555 180 128 13 141
13 235 2z"/>
</g>
</svg>
