<?xml version="1.0" encoding="UTF-8"?>
<svg width="500px" height="500px" viewBox="0 0 500 500" version="1.1" xmlns="http://www.w3.org/2000/svg" xmlns:xlink="http://www.w3.org/1999/xlink">
    <title>Artboard Copy</title>
    <g id="Artboard-Copy" stroke="none" stroke-width="1" fill="none" fill-rule="evenodd">
        <g id="Group" transform="translate(262.129771, 249.800790) scale(-1, 1) translate(-262.129771, -249.800790) translate(128.001873, 11.265741)">
            <path d="M77.022443,326.840589 C76.1735104,332.725366 74.0309662,338.979747 70.5312848,340.325335" id="Stroke-3" stroke="#000000" stroke-width="18.3" stroke-linecap="round" stroke-linejoin="round"></path>
            <line x1="77.0172455" y1="326.840011" x2="77.0172455" y2="170.971364" id="Stroke-4" stroke="#000000" stroke-width="18.3" stroke-linecap="round" stroke-linejoin="round"></line>
            <path d="M68.2079815,149.704736 C75.4498964,152.291959 77.0149355,162.623526 77.0149355,171.003126" id="Stroke-5" stroke="#000000" stroke-width="18.3" stroke-linecap="round" stroke-linejoin="round"></path>
            <path d="M2.69983671,166.116855 C4.74998009,146.123626 20.7122232,133.892066 34.6589732,133.943877 C34.7051736,133.943877 34.7513741,133.943877 34.7917994,133.943877" id="Stroke-6" stroke="#000000" stroke-width="18.3" stroke-linecap="round" stroke-linejoin="round"></path>
            <path d="M34.7935319,133.955592 C35.5096384,133.920942 36.2257448,133.903616 36.9476263,133.903616 C52.1417875,133.903616 60.8563406,139.89812 68.2484069,149.686833" id="Stroke-7" stroke="#000000" stroke-width="18.3" stroke-linecap="round" stroke-linejoin="round"></path>
            <path d="M38.1800223,134.01392 C46.2997451,133.892644 53.096981,147.943345 53.3626334,165.389776 C53.3799586,166.481261 53.3684085,167.555421 53.3337582,168.61803" id="Stroke-8" stroke="#000000" stroke-width="13.3" stroke-linecap="round" stroke-linejoin="round"></path>
            <line x1="53.3343357" y1="168.62034" x2="53.3343357" y2="331.938804" id="Stroke-10" stroke="#000000" stroke-width="13.3" stroke-linecap="round" stroke-linejoin="round"></line>
            <line x1="3.07521507" y1="329.279971" x2="2.69983671" y2="166.117433" id="Stroke-14" stroke="#000000" stroke-width="18.3" stroke-linecap="round" stroke-linejoin="round"></line>
            <path d="M70.5110722,340.277979 C58.337263,353.271846 54.6065796,358.105564 39.3084674,357.551159 C21.2094552,356.892803 5.85359248,344.551517 3.07579258,329.241855" id="Stroke-15" stroke="#000000" stroke-width="18.3" stroke-linecap="round" stroke-linejoin="round"></path>
            <path d="M53.3302931,331.813486 C53.3302931,343.744743 49.4898837,355.248646 44.6677155,357.500916" id="Stroke-16" stroke="#000000" stroke-width="13.3" stroke-linecap="round" stroke-linejoin="round"></path>
            <path d="M54.1624781,247.005118 C54.1624781,247.005118 60.3417835,246.485363 64.413195,245.827007" id="Stroke-19" stroke="#000000" stroke-width="14.3" stroke-linecap="round" stroke-linejoin="round"></path>
            <path d="M265.374622,411.559642 C263.619006,423.929803 260.1944,433.192986 255.897762,436.513641" id="Stroke-21" stroke="#000000" stroke-width="18.3" stroke-linecap="round" stroke-linejoin="round"></path>
            <line x1="265.368269" y1="411.559065" x2="265.368269" y2="79.0720089" id="Stroke-22" stroke="#000000" stroke-width="18.3" stroke-linecap="round" stroke-linejoin="round"></line>
            <path d="M254.824757,38.8995938 C260.992512,42.9190298 265.572128,57.9110642 265.572128,75.7848495 C265.572128,76.96296 265.502828,78.0197945 265.364227,79.1517046" id="Stroke-24" stroke="#000000" stroke-width="18.3" stroke-linecap="round" stroke-linejoin="round"></path>
            <path d="M123.233272,68.709256 C123.233272,30.8018162 153.338617,0.0727656524 190.48375,0.0727656524 C190.576151,0.0727656524 190.668552,0.0727656524 190.760953,0.0727656524" id="Stroke-25" stroke="#000000" stroke-width="18.3" stroke-linecap="round" stroke-linejoin="round"></path>
            <path d="M190.760953,0.103950932 C191.991039,0.0346503107 193.2269,0 194.474311,0 C220.721921,0 243.516051,15.7139159 255.008404,38.7910228" id="Stroke-26" stroke="#000000" stroke-width="18.3" stroke-linecap="round" stroke-linejoin="round"></path>
            <path d="M197.886212,0.228114545 C214.968815,-0.025987733 229.267843,29.9349809 229.828023,67.1551896 C229.862673,69.4825354 229.84514,71.7810061 229.770272,74.0506014" id="Stroke-27" stroke="#000000" stroke-width="13.3" stroke-linecap="round" stroke-linejoin="round"></path>
            <line x1="229.77316" y1="74.0494464" x2="229.77316" y2="422.43522" id="Stroke-29" stroke="#000000" stroke-width="13.3" stroke-linecap="round" stroke-linejoin="round"></line>
            <path d="M255.921439,436.494583 C245.145193,460.409073 220.959276,477.070097 192.846324,477.070097 C158.196013,477.070097 129.505556,451.75227 124.544787,418.747849 C124.544787,418.747849 127.513163,429.229568 133.369066,431.568464 C139.230743,433.913135 144.589991,429.252668 144.589991,429.252668 L146.183906,427.762705 C146.628585,427.318026 147.546818,426.180341 147.904871,425.666361 C149.152282,423.887645 149.337084,423.477617 150.480544,421.6296 C152.426736,418.476422 154.696332,408.670384 154.551956,404.183169 C154.551956,404.142743 154.551956,404.154293 154.551956,404.119643 C154.505755,403.536363 153.229469,386.852238 142.383921,376.98845 C131.347798,366.945635 125.43992,366.148678 123.23385,376.491795 L123.23385,68.6930859" id="Stroke-32" stroke="#000000" stroke-width="18.3" stroke-linecap="round" stroke-linejoin="round"></path>
            <path d="M229.77316,415.876938 C230.396866,444.798397 222.448084,468.800223 209.119265,475.123905" id="Stroke-34" stroke="#000000" stroke-width="13.3" stroke-linecap="round" stroke-linejoin="round"></path>
            <path d="M125.299586,421.999203 C123.49777,416.559105 122.285009,406.158236 122.285009,394.226979 C122.285009,387.01394 122.729688,380.36108 123.474669,375.024932" id="Stroke-36" stroke="#000000" stroke-width="18.3" stroke-linecap="round" stroke-linejoin="round"></path>
            <path d="M231.305859,369.1621 C231.305859,369.1621 241.412199,368.059065 248.076609,366.655727" id="Stroke-38" stroke="#000000" stroke-width="14.3" stroke-linecap="round" stroke-linejoin="round"></path>
            <path d="M131.318922,335.050601 C132.999462,335.050601 134.362375,333.693464 134.362375,332.012924 C134.362375,330.332384 132.999462,328.975247 131.318922,328.975247 C129.644157,328.975247 128.281245,330.332384 128.281245,332.012924 C128.281245,333.693464 129.644157,335.050601 131.318922,335.050601 Z" id="Fill-43" fill="#000000"></path>
        </g>
    </g>
</svg>