<svg height="960" viewBox="0 0 960 960" width="960" xmlns="http://www.w3.org/2000/svg"><g fill="#000" fill-rule="evenodd"><path d="m519.559256 96.3381424 225.322034 12.5262206c117.847626 6.551447 214.11871 99.664087 214.11871 210.49202v323.287234c0 110.827933-96.271084 203.940573-214.11871 210.49202l-225.322034 12.526221c-8.058287.44798-16.075481.450074-24.024872.01086l-1.472384-.087718-.280594.040836c-5.294817.725225-10.814035.457288-16.334005-.948611l-.534185-.139612-6.751216-1.808613-.931566-.165843c-11.198265-2.045097-22.148465-4.990273-32.760915-8.800564l-.835519-.303593-193.538235-51.970427c-.202225-.054304-.404017-.110193-.605359-.167664l-.602651-.177149c-15.095498-4.566393-29.633511-11.100995-43.224601-19.850209-.192209-.068317-.383576-.142341-.573854-.222703-22.563726-9.529569-40.488829-28.508472-51.192991-52.293112-6.190871-9.716231-11.61183-20.219287-16.232884-31.516645l-.110425-.272091-.069607-.031662c-1.09248-.516025-2.176061-1.08709-3.248055-1.714698l-.801782-.481331c-16.214143-9.977206-29.7520462-21.190704-40.4696637-33.801922-.0562703-.066212-.1123247-.132607-.1681623-.199185l-.8187358-.976213c-.0538123-.064162-.107423-.128494-.1608313-.192993-9.4794636-11.448027-20.5960356-28.501939-33.9957623-51.790964-3.4915558-6.068402-5.3291932-12.946944-5.3292415-19.94812l.0008409-31.941912-.5264632-.341223c-10.6347144-7.03317-17.7337323-19.018668-17.9655368-32.71399v-41.712741c0-13.949967 7.155829-26.284066 18.0539395-33.447652l.4380605-.283394-.0008409-32.264146c.0000448-6.402921 1.5371369-12.708957 4.4778818-18.389369l.3092166-.585375 1.4991533-2.78194c11.0400884-20.407286 19.6759046-34.6536 26.8106558-43.779852.0612726-.078375.1228374-.156522.184693-.234438l.5749931-.724286c.0650927-.081993.1305071-.163731.1962417-.245211 9.4297048-11.688418 20.004544-21.68086 31.6718636-29.872044l.738142-.515339.027537-.362668c2.243244-29.059424 10.187291-59.729163 24.013728-86.791458l.548837-1.066363c22.281235-42.97507 57.921356-74.313806 106.327464-87.614201 1.00986-.277476 2.030229-.515185 3.058746-.712576l216.497688-41.549734.053265-.0123861c3.543423-.7902053 7.026489-1.0846299 10.400803-.9460302l.030932.0014163 1.133654-.1887057c15.195268-2.4855158 30.767998-3.3134341 46.512602-2.4381519zm-48.674109 43.5539676.000659-.038172c-.32849-.64611-.643327-.930741-.943199-.836236l-2.767499.529155c-72.81363 17.784639-125.874443 82.365706-125.874443 162.282344v355.314036c0 97.575177 79.10031 172.28888 176.675487 166.877726l225.752012-12.51936c56.830163-3.151588 107.393315-30.355955 139.711753-70.056755 22.320793-28.172631 35.560083-62.445509 35.560083-98.801231v-323.287234c0-88.780082-78.949652-165.139569-176.338983-170.553688l-225.322034-12.52622c-16.077929-.893813-31.653294.39733-46.453836 3.615635zm46.537293 5.044022 225.752012 12.519361c45.046512 2.498111 87.273638 21.031595 118.538794 51.196886 30.806004 29.722291 48.690405 68.56784 48.690405 109.278743v323.110193c0 40.710904-17.884401 79.556453-48.690405 109.278744-31.265156 30.16529-73.492282 48.698775-118.538794 51.196885l-225.752012 12.519361c-44.567065 2.471522-86.538081-12.851558-117.508106-42.104102-30.961438-29.244432-48.613669-70.228541-48.613669-114.788966v-355.314036c0-44.560425 17.652231-85.544534 48.613669-114.788967 30.970025-29.252543 72.941041-44.575624 117.508106-42.104102zm-124.873223 8.932888-140.079752 26.885804c-60.730574 16.686749-87.846274 68.252009-97.592802 113.030631l.002988 346.8948c15.247759 83.990934 65.300504 112.409375 97.589814 122.176901l131.800886 35.397163c-38.72001-33.987543-62.969686-84.102032-62.969686-141.111082v-355.314036c0-60.970871 27.737232-114.055614 71.248552-147.960181zm21.098351 47.710757c-26.25926 24.803019-42.346903 60.224138-42.346903 100.249424v355.314036c0 40.025285 16.087643 75.446404 42.346903 100.249424 26.277185 24.81995 62.616948 38.895378 102.667449 36.674327l225.752012-12.51936c41.280117-2.289241 78.694415-19.507618 105.759511-45.620602 26.045733-25.12948 42.577111-58.629487 42.577111-94.885711v-323.110193c0-36.256224-16.531378-69.75623-42.577111-94.88571-27.065096-26.112984-64.479394-43.331362-105.759511-45.620602l-225.752012-12.519361c-40.050501-2.221051-76.390264 11.854377-102.667449 36.674328zm267.341261 39.386372c116.757783 18.492616 194.078534 139.590153 173.419393 270.026836s-131.616742 221.713859-248.374525 203.221243c-116.757782-18.492616-194.078533-139.590154-173.419392-270.026837 20.659141-130.436682 131.616742-221.713858 248.374524-203.221242zm-46.893075 18.452503-.720785.075879c39.448643 19.172572 72.157719 50.944207 93.789175 90.936443l68.595609-2.291345c3.108174-.103879 6.022424 1.238949 7.963566 3.529073 1.73894 1.614751 2.901448 3.839578 3.149022 6.329545 5.900465 14.243483 10.984099 27.608142 15.250717 40.098929 4.802244 14.058866 7.953415 28.28121 9.446779 42.654335.629291 6.056716-4.254929 11.265067-10.339542 11.025706l-20.713485-.813674c-1.366797.678271-2.909921 1.052881-4.540202 1.036468-1.838093-.018856-3.555311-.532421-5.026428-1.412916l-36.211361-1.425676c.591908 11.230741.394017 22.552416-.604703 33.894436l40.033904 5.099545c.605982-.108203 1.230666-.161752 1.868708-.155411 1.457085.014754 2.838253.340392 4.081116.913269l21.134125 2.692925c5.464868.696152 9.337397 5.681077 8.660591 11.148376-2.213723 17.882662-5.082202 32.81735-8.640918 44.853358-3.296358 11.148681-8.702369 23.394121-16.200988 36.783856l-.007567.708546c-.055404 5.52257-4.577246 9.954582-10.099815 9.899692-2.311306-.023403-4.431592-.829053-6.11184-2.162925l-66.003375-10.082264c-31.121966 53.823799-81.705361 92.06917-139.07981 105.683864 8.204049 2.619011 16.680024 4.641595 25.39414 6.021775 105.282861 16.675167 206.48256-66.574855 225.492068-186.596165s-51.511454-230.469214-156.794315-247.144381c-14.7396-2.334523-29.399171-2.710513-43.764386-1.301263zm-36.331032 7.50774-2.753331.897219c-71.090285 23.856776-128.766378 91.876913-142.643319 179.49247-15.164975 95.747879 26.648742 185.403082 97.63481 226.217093.397534-.083904.801903-.140541 1.214061-.172623 62.570286-4.870376 119.835582-42.151874 153.367737-98.991461-.314006-.96966-.481711-2.000406-.481711-3.065562v-80.325885c0-5.522848 4.477152-10 10-10l20.136564-.000503c.945626-10.920474 1.082156-21.813571.422103-32.60575l-20.951752-.823904c-5.365766-.211083-9.606915-4.622355-9.606915-9.992271v-76.680936c0-2.458328.888589-4.714805 2.366194-6.459682-24.449722-42.062112-62.564383-73.26449-107.796816-87.161413-.310713-.095461-.613409-.204684-.907625-.326792zm-462.884722 329.164614-45.5848674.001644c10.1881166 17.235334 18.6314114 29.89776 25.3298834 37.987278l.818736.976213c5.32651 6.267604 11.80521 12.227017 19.4361 17.878239zm-.001-67.006-50.389 1.502.001 45.504h50.388zm601.674969-28.107363h-12.451l.000152 61.075204c.359429.252194.698044.525084 1.015067.816152l60.074812 9.177007.649-64.79zm69.264031 8.823363-.178685 17.862444c1.078364-5.142493 2.072571-10.738047 2.980549-16.783778l.104105-.708029zm-672.026626-22.355236-57.209 2.401v20.967l57.209-1.705zm1.086626-66.794764-49.8854057 2.969048c-.1677254.009982-.3347309.01577-.5009143.017455l-.00168 45.859497 50.388-2.115zm671.477737-5.870139-.167737 16.388139 3.891969.153043-.077551-.447256c-.951469-5.384178-2.166862-10.748504-3.646681-16.093926zm-19.530737-46.331861-62.722031 2.096043v57.395l18.641356.73278c.047343-.005486.0948-.010647.142368-.015483 1.015905-.103281 2.011726-.050675 2.96369.138431l40.344617 1.586229zm-677.14912 5.073222-.574993.724287c-4.445289 5.686088-10.4752903 15.34574-18.0900033 28.978954l43.8671163-2.610463-.000693-50.4962c-9.226221 6.213164-17.626697 14.014305-25.201427 23.403422z" fill-rule="nonzero"/><path d="m62.2705767 467.217704-32.2770057 2.136096c-16.8860505.599229-30.26551508 14.461907-30.26551508 31.358587 0 16.175021 13.11244578 29.287467 29.28746728 29.287467.3267803 0 .6535376-.005469.9801348-.016405l32.2749187-2.015526z"/><path d="m647.920928 494.901826c13.664039 2.164172 26.719873-8.575964 29.161021-23.988763 2.441148-15.4128-6.656804-29.66175-20.320844-31.825921-13.664039-2.164171-26.719873 8.575964-29.161021 23.988763-2.441147 15.4128 6.656804 29.66175 20.320844 31.825921z"/><path d="m467.464495 503.215971c14.945044 2.367063 29.224862-9.37996 31.894867-26.23771 2.670005-16.857749-7.280879-32.442539-22.225923-34.809601-14.945043-2.367062-29.224861 9.379961-31.894866 26.23771-2.670006 16.85775 7.280879 32.442539 22.225922 34.809601z"/></g></svg>
