<svg height="960" viewBox="0 0 960 960" width="960" xmlns="http://www.w3.org/2000/svg"><g fill="none" fill-rule="evenodd"><path d="m81.7549477 19.2842016c2.1020459-.251921 4.2207744-.3365617 6.3362174-.2531245l1.0707266.0448042 1.1152248.0516922 2.3653767.1240313 1.8935034.1110725 2.6862631.1721341 2.1374577.1471099 2.2440236.1625301 13.964507 1.0654369 24.727253 1.9160242 69.809217 5.4516482 229.443882 18.0153031 421.8764 33.2191362.830154.0516651c.657482.0462292 1.314392.1038589 1.970496.172893l.983525.1121049c1.920596.2357782 3.815185.566887 5.679664.9896411l.219161.0506959.502645-.0561788c1.0045-.1070374 2.014643-.1875705 3.029868-.2410202l.892163-.0441339c.368087-.0151846.737262-.0253524 1.10745-.0304438l.556032-.0038223h20.492007c2.137463 0 4.232557.1666365 6.273779.487133l.630397.1051579c19.633863 2.8581193 34.937619 15.2748722 44.369436 32.3624011 7.274686 13.179476 10.956775 29.00627 11.037355 45.468393v1.175431l-.014815 1.52044c-.066483 3.975852-.344352 7.980448-.833882 11.987548-2.457403 20.115333-10.078873 38.889515-21.929293 52.844669l-.601537.699932c-5.832707 6.7251-12.629434 12.27356-20.191287 16.216752.167158.725777.255656 1.481584.255656 2.258061 0 41.283788 5.911465 76.425007 17.639858 105.445517.097148.24038.18491.484447.263088.731648 31.915607 100.917769 31.915607 165.107118-3.375624 192.696357-14.148157 11.06045-29.55443 13.113507-45.776762 7.579886l-.477229-.164489-.948825-.337319-.942237-.348882c-.313104-.11828-.625295-.238576-.936757-.360976l-.932386-.373602-.929123-.386758c-.618573-.262343-1.235709-.53381-1.852886-.815111l-.925979-.429414-.927147-.444694-.464358-.228244-.930977-.468611c-.31092-.158943-.622497-.320653-.934915-.48522l-.93996-.502359-.946115-.520029c-.15826-.088173-.316822-.177105-.475711-.266807l-.957422-.54753-.966346-.566528-.976377-.586057-.987517-.606117c-.165576-.102721-.331663-.206299-.498282-.310747l-1.006304-.637202-1.020212-.65859-1.03523-.680509c-.173851-.115274-.348374-.231483-.523592-.348639l-1.059833-.714382c-.178091-.120987-.356922-.242941-.536518-.365876l-1.086928-.74945-1.106378-.773493-1.126934-.798066-1.1486-.823172-1.171371-.848807-1.195253-.874974-1.840078-1.362685-1.259801-.942714-1.942094-1.466784-1.331274-1.013774-7.692551-5.890283-2.66579-2.023861-2.69554-2.025227-1.804666-1.337025-1.901536-1.383975-1.479276-1.051917-1.142674-.792829-.863997-.585413-.826213-.546599-.989168-.635144-.952142-.589448-.927346-.552057-.542474-.312689-.540607-.304213-.450912-.248282-.817512-.438282-.367596-.192479c-.492418-.256057-.994665-.510249-1.51477-.768028-7.181143-3.559174-11.932786-3.897756-15.966723-1.455475-9.449973 5.721332-14.551825 15.520382-14.885428 29.831597l2.131553.220354 2.463035.266938 3.655183.413022 4.442614.524021 4.090168.500015 6.11781.774134 7.021057.921639 5.287848.715378 2.496466.344751 3.239975.454673 3.903716.560142 3.00269.441406 4.297256.650646 2.723059.425947 3.239594.523425 1.243663.206519 2.396037.408067 2.272074.401339 2.661667.492029 1.499822.289981 1.42555.285993 1.783238.375031.840507.184784.805983.182943.771123.181088.973412.239175c18.383174 4.658712 32.310979 16.595044 39.461739 33.296731 4.194938 9.797915 5.512699 18.647347 5.795983 30.464146l.031803 1.593502.021248 1.748338.011418 2.487005v252.187808c0 13.883628-2.337385 26.508113-7.65233 37.805452-6.389931 13.582307-16.750958 24.292857-30.19786 30.852413-13.337492 6.506246-27.835913 9.112615-43.629769 9.046789-10.14227-.04649-20.060086-1.135454-31.770502-3.146079l-2.366582-.414378-16.033992-2.879628-6.470557-1.186738-3.848664-.720247-5.192938-.998897-3.1438-.626136-1.494078-.304864-2.512181-.525093-2.069801-.445849-2.3452-.521123-1.317922-.300675-1.844327-.43037-2.405344-.57774-1.620609-.399133-1.646853-.41298-1.683901-.429119-2.618957-.678943-1.823798-.479478c-29.470261-7.784608-48.533065-30.636571-47.368394-60.833411l.041404-.91523.000305-272.160501c0-20.451908 11.345985-39.196241 29.422183-48.690628l.549819-.28487 1.250377-.636127 1.981237-.997525 2.108979-1.050071 2.237779-1.103234c7.170673-3.519177 14.766509-5.784652 22.870258-7.227302 5.410909-.963264 10.85258-1.520871 16.457558-1.79608.218738-.01074.434312-.020977.647198-.03073l1.248842-.052875 1.207064-.04222.991719-.028404c.470854-20.850967 8.454873-36.387039 24.463586-46.079253 10.606246-6.421378 22.15346-5.693008 34.703896.397919l1.230355.609656 1.398346.714146 1.341747.711087 1.091983.601651.649928.369054 1.083949.634877.875722.530983.666393.414778.677915.431154.692398.449507.709844.469837.978716.661493 1.022017.705841 1.34911.951805 1.145116.822762 1.525199 1.112788 1.30376.963415 1.745719 1.303437 2.685151 2.026337 4.8712 3.71486 5.392146 4.132446 1.756212 1.331714 1.695346 1.272633 1.097856.816354 1.600381 1.177565 1.037246.754393 1.014513.730401.992644.706863 1.449852 1.017152.941752.650001.922907.62805c.152295.102871.303841.204846.454656.305935l.896258.595973.879573.575155.433799.279912.856163.544778.841638.525093c.13911.085901.277651.171.415641.255307l.821468.496417.809101.477865.797598.459767c.132023.075145.263602.149555.394756.223239l.781964.433471.77262.416506.764141.399996c.126699.065315.25308.129961.379161.193947l.753042.376079.746722.360701c.24795.117721.49499.232954.741265.345776l.736674.331306.732945.317288.365344.153529.728973.297111.727403.284228.726698.271796.726858.259819.363758.125559c10.061109 3.431959 18.39465 2.321422 27.001993-4.407446 25.911851-20.256824 26.17097-76.33731-2.49801-168.116959l-.768425-2.443287-.260002-.64913c-12.105876-30.412782-18.300016-66.411617-18.665804-107.977222-2.596272.320297-5.247654.465342-7.947939.423678l-.047569.000769c-.313065-.004536-.626097-.011686-.939072-.02145l-.909614-.036645-.652947-.015855-.638018-.026868-.639706-.03703-17.783473-1.169796c-.457081-.030067-.911791-.067672-1.364021-.112684l-.636835-.069767-.368519-.0342-.980648-.110666c-6.087915-.740929-11.852873-2.431895-17.200539-4.935334l-.517294-.2458-.720578-.058625-.64597-.064875-766.2292145-83.119079-.2802375-.033421-.1297137-.010155c-3.8651803-.365639-7.6962027-1.093223-11.4505329-2.181645l-.8650031-.257579c-18.4567086-5.641792-32.6729772-19.246697-40.0828148-36.694821-6.6734921-15.714234-7.4719576-33.6804896-2.3138562-50.5489193 8.2908994-27.1135532 30.9787754-47.6386209 58.3978684-50.9246791zm694.5652863 558.7824214-2.051293.001166-1.579279.01506-1.277833.023495-1.349563.037188-.935868.033837-.962212.042079-.986342.051183-1.008258.061151-1.027958.071981c-.172845.012947-.346419.026381-.520675.040321l-1.053358.089843-1.067523.10283-1.079473.116678-1.08921.131391c-5.466698.695169-11.215464 1.974378-16.000704 4.322847-.239151.117369-.475842.233701-.710073.348996l-2.692727 1.333787-1.864604.935034-1.731796.879055c-5.016991 2.563842-8.17418 7.722819-8.17418 13.356954v273.408977l-.028263.390042c-.723393 11.005791 5.133475 18.151329 17.570606 21.436614 13.212622 3.490131 26.386213 6.083799 39.004377 8.378805l3.58963.648106 12.287025 2.185106 2.605957.454123 1.320071.221016 1.330389.215837c.222546.035494.445489.070735.668811.105707l1.344351.206453 1.352648.199119 1.360139.190923 1.36682.181866 1.372694.171946c2.063042.25005 4.143181.463715 6.228146.627905l1.390557.101987c11.591687.786418 23.248147-.043918 32.865223-4.735284 10.258313-5.004125 15.387469-15.906555 15.387469-32.70729v-252.187724l-.005543-1.509936-.013366-1.500112-.026729-1.547173-.031094-1.150153-.026962-.76128-.05109-1.13286-.041915-.74872-.048803-.743119-.056211-.737187-.064138-.730925-.072583-.724334c-.01283-.120155-.026033-.240021-.03962-.359592l-.086224-.713828-.095967-.706411-.106228-.698664c-.037177-.23156-.076151-.461774-.117008-.690587l-.128307-.682181-.140125-.673443c-.170574-.780459-.366336-1.542406-.590994-2.283482l-.199726-.630043c-1.931771-5.831664-5.780623-10.284488-13.444836-12.150883l-.97482-.229027-.705043-.157019-.747546-.160302-1.617012-.329834-.866676-.169219-1.368799-.258766-1.447155-.264223-2.043283-.359874-1.611663-.274904-2.823006-.466134-2.975228-.473969-3.740498-.575666-2.579383-.386008-3.969735-.579235-4.057026-.575752-5.432098-.748464-3.317203-.445563-6.015737-.78715-6.8573-.864747-3.715226-.449146c.636531 1.890851 1.312451 3.819194 2.028045 5.785324 1.888881 5.189795-.787039 10.928196-5.976834 12.817076-5.189796 1.888881-10.928196-.787039-12.817077-5.976834-1.8386-5.051645-3.451542-9.947557-4.835949-14.684761zm-5.993218 184.696904c17.69156-2.802068 34.094117 10.191889 37.003813 28.562986s-8.67471 35.797753-26.36627 38.599821-34.094118-10.191889-37.003814-28.562986c-2.909695-18.371097 8.674711-35.797753 26.366271-38.599821zm17.250047 31.691675c-1.23733-7.812193-7.724291-12.951104-14.121358-11.937908-6.397067 1.013195-10.978523 7.905172-9.741193 15.717365s7.724291 12.951104 14.121358 11.937908 10.978522-7.905172 9.741193-15.717365zm-17.250047-102.008862c17.69156-2.802067 34.094117 10.191889 37.003813 28.562986s-8.67471 35.797754-26.36627 38.599822c-17.69156 2.802067-34.094118-10.191889-37.003814-28.562986-2.909695-18.371097 8.674711-35.797754 26.366271-38.599822zm17.250047 31.691676c-1.23733-7.812193-7.724291-12.951105-14.121358-11.937909s-10.978523 7.905172-9.741193 15.717365 7.724291 12.951105 14.121358 11.937909 10.978522-7.905172 9.741193-15.717365zm-17.250047-102.008862c17.69156-2.802068 34.094117 10.191889 37.003813 28.562986s-8.67471 35.797753-26.36627 38.599821-34.094118-10.191889-37.003814-28.562986c-2.909695-18.371097 8.674711-35.797753 26.366271-38.599821zm17.250047 31.691675c-1.23733-7.812193-7.724291-12.951104-14.121358-11.937908s-10.978523 7.905172-9.741193 15.717365 7.724291 12.951104 14.121358 11.937908c6.397067-1.013195 10.978522-7.905172 9.741193-15.717365zm116.087073-531.612029c-10.590907-.828542-23.622939 16.066745-26.573924 40.009067-2.988365 24.24559 5.807768 43.960346 16.458766 45.263143 2.987485.365421 6.184627-.708008 9.305124-2.976176 1.224273-1.049981 2.409916-2.236945 3.547473-3.548547l.329641-.38311c2.254307-2.65469 4.312662-5.796846 6.100808-9.330816l-9.770049-.3916c-3.334943-.133569-6.383409-1.922142-8.126921-4.768166l-7.827651-12.777476c-1.676378-2.736437-1.937635-6.111158-.702395-9.073l6.785306-16.269721c1.630352-3.909238 5.546682-6.367328 9.77594-6.135882l14.886334.814072c-2.64475-9.665647-7.58363-17.077677-13.97963-20.326933zm-45.520241 8.44782c-4.978233 7.470128-8.643501 18.51133-9.936044 30.836639-1.296889 12.366742-.013519 24.195055 3.318324 32.971882 1.396505 3.67871 2.997491 6.460532 4.610064 8.363044.445107-.102651.888262-.222107 1.32912-.357951l-.186451.056169c1.300006 1.38591 2.70292 2.567476 4.196684 3.517806 1.161928.260126 2.236201.717783 3.192769 1.331282l-.053732-.095886c-6.759028-12.53091-9.58155-29.599428-7.374211-47.508303 1.747882-14.181151 6.42742-27.089413 13.066137-37.075049-.358396.008082-.720771-.003713-1.085536-.035693l-.03952.019682-.455768.242549c-.172636-.124613-.3466-.24617-.521869-.364628-2.620856-.056199-6.279294 2.425336-10.059967 8.098457zm-771.6291828-71.65662c-10.8157553 1.2962209-21.0016407 10.137228-24.9060164 22.9056254-5.0121548 16.3911436 2.0787802 33.0883396 15.8380465 37.2942316 1.7668796.540095 3.5578014.847943 5.3480681.939577l-.0017566.02928 749.9709892 81.355135c-4.432584-11.721388-6.076322-26.58091-4.447116-42.116532 1.708405-16.290839 6.78104-30.926737 14.096507-41.269761l-386.851009-30.4616081-181.308485-14.2471197-110.520574-8.6550264-44.10387-3.4312786-17.732908-1.3626598-4.5302835-.338452-2.5266594-.1764816-2.348489-.1523819-2.6850589-.1565873-.996074-.0520913-.9515314-.0460664zm822.4142878 103.182-2.098 5.032 2.368 3.866 9.866619.39554c.141888-.893155.268744-1.795463.380005-2.7062.246706-2.019439.409039-4.017311.491045-5.98447z" fill="#000" fill-rule="nonzero"/><path d="m36.2241302 71.4677315 13.5165638 18.3504318c-13.6253925-1.0697732-23.8444369-1.8721031-30.6571332-2.4069897-.2668426-.0209507-1.8274074-.1766595-4.6816943-.4671266-3.5816682-1.4528095-5.36358409-6.0028108-3.9968557-10.4731779 1.2474339-4.0801724 4.7065095-6.7485931 8.1762491-6.5762723z" stroke="#000" stroke-linecap="round" stroke-linejoin="round" stroke-width="20"/></g></svg>