<?xml version="1.0" encoding="UTF-8"?>
<svg width="500px" height="500px" viewBox="0 0 500 500" version="1.1" xmlns="http://www.w3.org/2000/svg" xmlns:xlink="http://www.w3.org/1999/xlink">
    <title>Artboard Copy 7</title>
    <g id="Artboard-Copy-7" stroke="none" stroke-width="1" fill="none" fill-rule="evenodd">
        <g id="wmremove-transformed" transform="translate(1.000000, 118.000000)" fill="#000000" fill-rule="nonzero">
            <g id="Group" transform="translate(249.216000, 132.000000) scale(-1, 1) rotate(-180.000000) translate(-249.216000, -132.000000) ">
                <path d="M59.4966299,263.816731 C53.6571929,263.144602 47.0615698,260.41408 39.9618227,255.667171 C32.3579516,250.584198 25.2161941,243.988935 13.9994339,231.722587 C3.45483904,220.212384 4.12700445,221.094552 4.50509749,219.162183 C4.92520087,216.683708 4.84118019,209.836397 4.08499411,192.865148 C3.24478735,173.835505 2.27854958,144.5559 1.73241518,120.401276 C1.52236349,110.025289 1.22829113,98.5570939 1.10226012,94.9864103 C0.976229101,91.4157267 0.892208426,85.5346009 0.850198088,81.9639173 C0.850198088,78.3932337 0.682156736,71.5039148 0.430094708,66.6309819 C-0.452122389,46.9292102 -0.158050023,44.0726634 3.03473566,42.4343497 C5.93344898,41.0060763 11.6468549,40.3339476 53.8252342,36.8052721 C63.8236947,35.9651113 76.7208684,34.7468781 92.0546418,33.2345885 C99.1123786,32.5204518 108.942798,31.5962749 113.900018,31.1341864 C118.857237,30.672098 132.84668,29.2438246 144.987668,27.9835833 C157.128655,26.723342 169.143612,25.5051088 171.664232,25.2530606 C176.915524,24.7489641 209.011423,21.3463127 243.291858,17.649605 C256.105011,16.2633396 269.464299,14.8770742 272.993167,14.4990018 C276.480025,14.1629375 287.066631,13.0707284 296.518957,12.0625354 C305.929272,11.0123343 316.767939,9.87811719 320.59088,9.50004481 C324.413821,9.12197243 336.428778,7.90373921 347.267445,6.76952208 C358.148122,5.63530495 372.305606,4.20703152 378.775198,3.61891893 C385.24479,3.03080634 394.991189,1.93859725 400.410522,1.26646858 C418.979092,-1.12798982 423.390177,-0.539877231 441.16055,6.64349795 C459.182985,13.9528973 469.433508,20.3381197 477.919596,29.4118567 C482.414702,34.2427816 485.103364,38.0655134 489.220377,45.5429449 C492.707235,51.9281672 497.706465,65.5807809 498.210589,70.2436736 C499.51291,82.0059253 495.101824,99.9853673 484.137126,127.962723 C482.834805,131.197343 481.490475,134.810034 481.070371,135.944251 C479.72604,139.724975 477.709544,143.799755 476.155162,145.942165 C473.382479,149.722889 470.735828,150.941122 456.914427,154.805862 C453.217517,155.814055 441.706685,159.048674 431.288121,161.989237 C399.696347,170.852934 392.176496,172.953336 382.556129,175.641851 C377.472878,177.070124 368.692717,179.506591 363.021322,181.102896 C357.349926,182.699202 348.191672,185.219685 342.646308,186.773982 C337.100943,188.32828 328.110731,190.806754 322.691397,192.319044 C304.4169,197.402017 278.370491,204.669408 264.297027,208.618164 C259.087745,210.088445 251.063771,212.35688 246.442634,213.659129 C220.060142,221.052544 197.164507,227.647807 187.838212,230.462346 C183.80522,231.680579 175.865266,234.033029 170.19387,235.713351 C164.522475,237.393673 156.876593,239.662107 153.179684,240.754316 C125.788943,248.987892 93.4829933,258.019621 81.0059229,260.876168 C68.4448319,263.774723 64.2858084,264.362836 59.4966299,263.816731 Z M61.1350331,249.576005 C64.5378704,223.531019 65.8401909,201.644829 65.4620979,177.952293 C65.1260152,158.166505 64.6218911,153.209557 61.1770434,137.708589 C58.1943094,124.182 54.7494617,112.713804 49.8342521,99.8173351 C44.7510012,86.4587778 30.5701089,66.1915682 22,58 C18.7231936,54.8914049 16.1012867,57.1393566 19,60.5 C24.3353129,66.6751822 31.9293805,76.5848188 35.112,86.856 C40.92,105.6 43.296,121.44 46.992,141.24 C50.688,161.04 51.744,175.296 54.12,201.96 C55.3224839,215.454541 55.44,225.192 55.44,246.048 C55.44,252.371749 59.136,252.912 61.1350331,249.576005 Z M73,245.75 C85.9811944,243.061485 100.397916,238.909801 133.25,229.5 C142.366243,226.853493 439.380925,143.176225 443.75,142 C454.714698,139.059437 458.75,135.5 460,133.25 C461.25,131 468.466264,114.224335 470.75,107.5 C475.25,94.25 478.378093,81.8360643 478,81.5 C477.915979,81.4159839 465.19691,83.6178311 461.5,84.5 C441.166996,89.2889168 425.238632,91.0796624 382.76618,98.9771743 C374.574165,100.489464 361.887042,102.841914 354.619254,104.22818 C347.351466,105.572437 339.579553,107.00071 337.395015,107.378783 C330.085217,108.597016 281.941369,117.670753 264.927182,121.031396 C257.995477,122.417662 239.300876,126.072361 223.336948,129.222965 C207.41503,132.373568 188.216305,136.154291 180.696455,137.666581 C173.176604,139.136862 161.371699,141.531321 154.439994,142.917586 C147.508288,144.261844 136.165497,146.572286 129.233791,147.958551 C122.302085,149.344817 115.202338,150.731082 113.479914,151.067146 C111.75749,151.361203 106.548208,152.411404 101.927071,153.377589 C97.305934,154.301766 90.1221662,155.772047 85.9631428,156.5702 C81.8041193,157.368353 76.8048891,158.334538 74.8724136,158.754618 L71.3435452,159.468755 L71.2595245,184.2535 C70.5,204 71.0543825,207.318711 69.5,224.5 C68.8278346,232.187472 68.4621137,237.151646 68,239 C67.7059276,240.260241 68.0847905,246.758193 73,245.75 Z M49,230.5 C49,206.212 47.848,201.718 46,178.75 C43.46419,147.233504 36.5624657,106.615307 30,90.5 C27.112,83.408 24.5218997,77.1560246 23,75 C20,70.75 16.5440724,63.3975496 16.25,65.75 C15.871907,69.0686353 18.1618553,137.837145 18.75,152.75 C19.128093,163.167994 19.7396899,184.374089 21,215.25 C29.5849917,225.251769 34.5016584,230.918436 35.75,232.25 C39.5,236.25 41.2394385,237.956742 43.75,239.75 C45.5,241 47.25,242.5 48,241.5 C48.75,240.5 48.8319586,233.230523 49,230.5 Z M77.5610752,152.117347 C81.0479332,151.403211 108.060581,146.026181 137.635858,140.145055 C167.211136,134.26393 197.5426,128.214772 205.062451,126.702482 C254.130526,116.914608 318.868456,104.480228 332.773878,102.127777 C334.28625,101.875729 342.142184,100.447456 350.208169,98.9351663 C358.316164,97.4228767 371.54942,94.9864103 379.615405,93.4741208 C387.7234,91.9618313 399.696347,89.693397 406.29197,88.4331558 C412.887593,87.1309065 419.693267,85.8286571 421.415691,85.5346009 C440.068281,82.1319495 465.5,77 468.5,76.5 C471.5,76 481.346954,73.2908627 480,69.25 C478.75,65.5 475.462114,54.7120885 475,54.25 C474.537886,53.7879115 464.15259,56.225421 445.5,59.25 C405.548169,65.6772304 418.180895,63.5223868 417.004606,63.7324271 C415.744296,63.9004592 393.436806,67.4711428 368.692717,71.4619068 C361.298898,72.68014 352.308685,74.0664054 348.737807,74.6125099 C345.166928,75.1586145 336.470788,76.5448799 329.413051,77.721105 C322.355314,78.8553222 315.675671,79.9475313 314.499381,80.0735554 C313.365102,80.2415876 306.727469,81.3337967 299.795763,82.4680138 C292.864057,83.6022309 284.251938,84.9884963 280.681059,85.5346009 C277.11018,86.0807054 267.741875,87.5509869 259.885942,88.8112281 C252.030009,90.1134774 237.872525,92.4239197 228.378188,93.9362093 C188.720429,100.321432 136.62761,108.93308 105.918053,114.100069 C101.170885,114.898222 89.8280939,116.788584 80.7118505,118.342882 C71.5956072,119.855171 63.9497257,121.241437 63.7816843,121.409469 C63.613643,121.577501 63.8236947,123.131798 64.2858084,124.854128 C66.2182839,131.827463 70.209266,150.899114 70.209266,153.083532 C70.209266,153.545621 70.7974108,153.461605 77.5610752,152.117347 Z M71.0494728,113.890029 C91.6345384,110.487378 99.2384096,109.059104 98.3141821,108.807056 C95.1634068,107.966895 94.7012931,107.420791 91.1724247,100.111391 C82.7703571,82.636046 87,91.25 82.5,80.25 C81.5447266,77.9148872 82.0501297,75.3331172 82.25,75 C83,73.75 83,73.75 85,73 L93.5,70.5 C305.23058,41.200134 413.98058,26.200134 419.75,25.5 C424.70722,24.9118874 446.95799,23.0840161 447.002883,23 C447.04201,22.9159839 435.5,14.75 421,13 C406.5,11.25 394.590729,14.1137346 383.5,15.5 C372.409271,16.8862654 35.4082537,52.0276703 26.25,53.75 L39,69.5 C47.448,82.172 53.3631205,90.0294614 59.4966299,108.849064 C61.7231778,115.738383 61.7231778,115.654367 62.5633845,115.402319 C62.9414776,115.276295 66.7644183,114.604166 71.0494728,113.890029 Z M118,103.75 C122.873199,103.035863 419.629633,56.0122895 429.25,54.5 C459.329402,49.8371073 460.5,49.5 462,49.25 C463.5,49 481.75,48 457.75,32.75 C453.335072,29.9446814 448.75,30 435.25,31 C429.63369,31.416023 117.20722,73.5778713 112.25,74.25 C101.11726,75.8042976 89.25,79.0358633 89.25,79.75 C89.25,80.0860643 92.4143083,88.0781112 94.75,93.25 C101.75,108.75 113.168811,104.464137 118,103.75 Z" id="Shape"></path>
            </g>
        </g>
    </g>
</svg>