<svg height="960" viewBox="0 0 960 960" width="960" xmlns="http://www.w3.org/2000/svg"><g fill="none" fill-rule="evenodd"><g stroke="#000" stroke-linejoin="round"><path d="m356.875795 18.6665796.022205 5.7084204 378.248571 17.5971677c18.169251.8452636 34.552757 7.490155 46.558532 17.2998199l.519224.4284934c13.885382 11.5737558 21.775673 27.2673809 21.775673 43.745129v753.10878c0 16.477748-7.890291 32.171373-21.775673 43.745129-12.05049 10.044335-28.645183 16.8708-47.077756 17.728313l-384.434286 17.884518c-4.088104.190185-8.089877.067865-11.973948-.337627l-65.272018-8.137232c-29.761639-5.073098-56.699745-14.901374-76.500596-26.031213-11.679047-6.564663-21.009272-13.685958-27.474608-20.569254-9.660506-10.285021-13.491115-20.714295-13.491115-29.619696v-740.173526c0-9.011448 3.613052-18.8280418 12.473558-28.2711994 5.935168-6.3254552 14.547391-12.7342037 25.537195-18.6138876 18.543188-9.9208393 44.456178-18.7335373 74.22276-24.2526111z" stroke-width="40"/><path d="m320.843097 46.8388784c10.490325-8.4434761 24.951871-13.4248408 40.996958-12.6576363l374.031491 17.8845176c15.751128.7531487 29.968636 6.6755674 40.277614 15.507302 11.110436 9.5183473 17.680508 22.3473179 17.680508 35.9763363v753.108779c0 13.629018-6.570072 26.457989-17.680508 35.976336-10.308978 8.831735-24.526486 14.754154-40.277614 15.507302l-374.031491 17.884518c-16.045087.767204-30.506633-4.21416-40.996958-12.657636-11.158804-8.981524-17.916384-21.840778-17.916384-36.316013v-793.8977934c0-14.4752349 6.75758-27.3344889 17.916384-36.3160122z" stroke-linecap="round" stroke-width="20"/><path d="m360.805284 89.8354373 387.967115 17.0234497v667.262594l-387.967115 17.707068z" stroke-linecap="round" stroke-width="20"/><path d="m415.659518 213.575892v-49.970319l29.766687-28.612898 31.506718 33.048115v45.535102l230.059198 4.223993" stroke-linecap="round" stroke-width="20"/></g><path d="m674 265h30.926687v31h-30.926687zm0 42h30.926687v31h-30.926687zm0 42h30.926687v31h-30.926687z" fill="#000"/></g></svg>