<?xml version="1.0" encoding="UTF-8"?>
<svg width="360px" height="502px" viewBox="0 0 360 502" version="1.1" xmlns="http://www.w3.org/2000/svg" xmlns:xlink="http://www.w3.org/1999/xlink">
    <title>icon</title>
    <g id="Page-1" stroke="none" stroke-width="1" fill="none" fill-rule="evenodd">
        <g id="Artboard-Copy-6" transform="translate(-70.000000, 1.000000)">
            <g id="icon" transform="translate(79.000000, 8.000000)">
                <path d="M237.733677,483.966274 L48.3629015,483.966274 C21.7869138,483.966274 0,474.118319 0,435.603373 L0,54.602188 C0,28.0262003 21.7531879,8.33029057 48.3629015,8.33029057 L233.21441,0 C271.594453,0 280.295729,20.7414117 281.577312,52.1739252 L282.622814,435.603373 C282.589088,462.213086 267.108912,483.966274 237.733677,483.966274 Z" id="Path" stroke="#000000" stroke-width="18"></path>
                <path d="M236.620723,0.0674517455 C321.171486,11.6354261 341.777995,13.8950596 341.777995,53.2194272 L341.069751,435.637098 C341.069751,462.213086 325.55585,484 296.180615,484 L240.094488,484" id="Path" stroke="#000000" stroke-width="18"></path>
                <ellipse id="Oval" stroke="#000000" stroke-width="5" fill="#000000" fill-rule="nonzero" cx="228.845028" cy="424.974357" rx="29.6113163" ry="32.7140966"></ellipse>
                <g id="Group" transform="translate(104.685109, 91.768100)" fill="#000000" fill-rule="nonzero">
                    <path d="M0.3709846,10.859731 C1.04550206,11.2307156 1.98982649,11.5679744 3.00160268,11.5342485 C4.48554108,11.5005226 5.3286879,10.6911017 5.29496202,9.57814786 C5.26123615,8.53264581 4.65417044,7.9255801 3.13650617,7.38596613 C1.28158316,6.77890043 0.134903491,5.83457599 0.101177618,4.24945997 C0.0674517455,2.49571458 1.4839384,1.18040555 3.67612013,1.1129538 C4.8227998,1.07922793 5.66594662,1.34903491 6.17183472,1.61884189 L5.80085011,2.79924744 C5.42986551,2.5968922 4.68789631,2.29335935 3.64239426,2.32708522 C2.12472998,2.36081109 1.55139015,3.30513553 1.55139015,4.04710473 C1.58511602,5.09260679 2.25963348,5.59849488 3.84474949,6.17183472 C5.76712424,6.88007804 6.74517455,7.75695074 6.77890043,9.4095185 C6.8126263,11.129538 5.56476901,12.6809282 2.90042506,12.7483799 C1.82119713,12.7821058 0.640791582,12.4785729 0,12.0738624 L0.3709846,10.859731 Z" id="Path"></path>
                    <path d="M18.2119713,7.31851439 C18.1107937,5.76712424 17.9421643,3.87847537 17.9421643,2.46198871 L17.9084384,2.46198871 C17.5374538,3.77729775 17.1327434,5.22751028 16.5931294,6.74517455 L14.7382064,12.2424918 L13.6252526,12.2762177 L11.7028778,6.94752979 C11.129538,5.36241377 10.6573758,3.94592711 10.3201171,2.5968922 L10.2863912,2.5968922 C10.2863912,4.01337886 10.2526653,5.86830186 10.1852136,7.5545955 L9.98285834,12.3773953 L8.60009755,12.4111212 L9.13971152,1.14667967 L10.9946345,1.1129538 L13.0181869,6.50909344 C13.524075,7.89185423 13.9287855,9.10598565 14.2323183,10.2863912 L14.2660442,10.2863912 C14.5358512,9.13971152 14.9068358,7.89185423 15.378998,6.47536757 L17.2676469,1.01177618 L19.1225699,0.97805031 L20.0668943,12.2087659 L18.6504076,12.2424918 L18.2119713,7.31851439 Z" id="Path"></path>
                    <path d="M23.8104662,8.60009755 L22.7312382,12.1750401 L21.2472998,12.2087659 L24.8222424,0.876872692 L26.5759877,0.843146819 L30.6568183,12.0064107 L29.1054282,12.0401366 L27.823845,8.53264581 L23.8104662,8.60009755 Z M27.4865863,7.38596613 L26.3061808,4.18200822 C26.0363738,3.44003902 25.8677444,2.79924744 25.6653892,2.15845586 L25.6316633,2.15845586 C25.4630339,2.83297331 25.2944046,3.50749077 25.0920493,4.2157341 L24.0465473,7.48714375 L27.4865863,7.38596613 Z" id="Shape"></path>
                    <path d="M32.0395791,0.843146819 C32.7815483,0.674517455 33.8270504,0.573339837 34.8051007,0.539613964 C36.3564908,0.505888091 37.368267,0.775695074 38.0765103,1.38276078 C38.6498502,1.854923 38.9871089,2.63061808 39.0208348,3.50749077 C39.0545607,4.99142917 38.1439621,6.00320535 36.9635565,6.40791582 L36.9635565,6.4416417 C37.8404292,6.71144868 38.3800432,7.52086963 38.6498502,8.6675493 C39.0545607,10.2189394 39.3243676,11.2981674 39.5941746,11.7366037 L38.1102362,11.7703296 C37.907881,11.4330709 37.638074,10.4887464 37.3008153,9.10598565 C36.9298307,7.5545955 36.322765,6.98125566 35.0074559,6.98125566 L33.6246951,7.01498153 L33.7258728,11.8715072 L32.2756602,11.9052331 L32.0395791,0.843146819 Z M33.5909693,5.93575361 L35.0749077,5.90202773 C36.6262978,5.86830186 37.6043481,4.99142917 37.5706223,3.709846 C37.5368964,2.25963348 36.4913943,1.65256777 34.9400042,1.65256777 C34.2317609,1.65256777 33.7258728,1.75374538 33.5235175,1.82119713 L33.5909693,5.93575361 Z" id="Shape"></path>
                    <polygon id="Path" points="43.3040206 1.68629364 39.8977075 1.75374538 39.8639816 0.505888091 48.1942722 0.337258728 48.227998 1.58511602 44.787959 1.65256777 44.9903143 11.669152 43.5063759 11.7028778"></polygon>
                    <path d="M59.0540032,6.40791582 C58.9528256,4.85652568 58.7841962,2.9678768 58.7841962,1.55139015 L58.7504704,1.55139015 C58.3794858,2.86669918 57.9747753,4.31691171 57.4351613,5.83457599 L55.5802383,11.3318932 L54.4672845,11.3656191 L52.5449098,6.03693122 C51.9715699,4.4518152 51.4994077,3.03532855 51.162149,1.68629364 L51.1284231,1.68629364 C51.1284231,3.10278029 51.0946972,4.9577033 51.0272455,6.64399693 L50.8248903,11.4667967 L49.4421295,11.5005226 L49.9817434,0.236081109 L51.8366664,0.202355237 L53.8602188,5.59849488 C54.3661069,6.98125566 54.7708174,8.19538708 55.0743502,9.37579263 L55.1080761,9.37579263 C55.3778831,8.22911295 55.7488677,6.98125566 56.2210299,5.56476901 L58.1096788,0.101177618 L59.9646018,0.0674517455 L60.9089262,11.2981674 L59.4924396,11.3318932 L59.0540032,6.40791582 Z" id="Path"></path>
                    <polygon id="Path" points="64.2815135 0 64.5175946 11.2307156 63.0673821 11.2644415 62.831301 0.0337258728"></polygon>
                </g>
                <g id="Group" transform="translate(35.243537, 432.331963)" fill="#000000" fill-rule="nonzero" stroke="#000000">
                    <path d="M0,0.168629364 C0.438436346,0.101177618 0.97805031,0.0337258728 1.72001951,0.0337258728 C2.5968922,0.0337258728 3.23768379,0.236081109 3.64239426,0.60706571 C4.01337886,0.944324437 4.24945997,1.45021253 4.24945997,2.05727824 C4.24945997,2.66434395 4.0808306,3.17023204 3.709846,3.54121664 C3.23768379,4.04710473 2.46198871,4.28318584 1.61884189,4.28318584 C1.34903491,4.28318584 1.1129538,4.28318584 0.910598565,4.2157341 L0.910598565,6.98125566 L0.0337258728,6.98125566 L0.0337258728,0.168629364 L0,0.168629364 Z M0.910598565,3.47376489 C1.1129538,3.54121664 1.34903491,3.54121664 1.65256777,3.54121664 C2.73179569,3.54121664 3.37258728,3.03532855 3.37258728,2.05727824 C3.37258728,1.14667967 2.73179569,0.708243328 1.75374538,0.708243328 C1.34903491,0.708243328 1.07922793,0.741969201 0.910598565,0.775695074 L0.910598565,3.47376489 Z" id="Shape"></path>
                    <polygon id="Path" points="6.74517455 0.843146819 4.65417044 0.843146819 4.65417044 0.101177618 9.74677723 0.101177618 9.74677723 0.843146819 7.65577312 0.843146819 7.65577312 6.98125566 6.74517455 6.98125566 6.74517455 0.843146819"></polygon>
                    <path d="M15.0417393,6.74517455 C14.7044805,6.91380392 14.0636889,7.08243328 13.2205421,7.08243328 C11.2644415,7.08243328 9.81422897,5.86830186 9.81422897,3.60866839 C9.81422897,1.45021253 11.2644415,0 13.4228974,0 C14.2660442,0 14.8056581,0.168629364 15.0417393,0.303532855 L14.839384,1.01177618 C14.5021253,0.843146819 14.0299631,0.741969201 13.4566232,0.741969201 C11.8377813,0.741969201 10.7585534,1.78747126 10.7585534,3.57494251 C10.7585534,5.26123615 11.7366037,6.34046408 13.3891715,6.34046408 C13.9287855,6.34046408 14.4683994,6.23928646 14.839384,6.0706571 L15.0417393,6.74517455 Z" id="Path"></path>
                </g>
                <g id="Group" transform="translate(76.591457, 432.702948)" fill="#000000" fill-rule="nonzero" stroke="#000000">
                    <polygon id="Path" points="0.944324437 0.0337258728 0.944324437 2.76552157 4.4518152 2.76552157 4.4518152 0.0337258728 5.39613964 0.0337258728 5.39613964 6.57654519 4.4518152 6.57654519 4.4518152 3.50749077 0.944324437 3.50749077 0.944324437 6.57654519 1.91709391e-14 6.57654519 1.91709391e-14 0.0337258728"></polygon>
                    <polygon id="Path" points="10.7585534 3.50749077 7.95930597 3.50749077 7.95930597 5.86830186 11.0958121 5.86830186 11.0958121 6.57654519 7.04870741 6.57654519 7.04870741 0.0337258728 10.9609086 0.0337258728 10.9609086 0.741969201 7.99303184 0.741969201 7.99303184 2.79924744 10.7922793 2.79924744 10.7922793 3.50749077"></polygon>
                    <path d="M13.4566232,4.51926695 L12.714654,6.57654519 L11.7366037,6.57654519 L14.1985924,0.0337258728 L15.3115462,0.0337258728 L17.7735349,6.57654519 L16.7617588,6.57654519 L15.9860637,4.51926695 L13.4566232,4.51926695 Z M15.8174343,3.87847537 L15.109191,1.98982649 C14.9405616,1.55139015 14.839384,1.18040555 14.7382064,0.809420946 L14.7044805,0.809420946 C14.6033029,1.21413142 14.4683994,1.58511602 14.3334959,1.98982649 L13.6252526,3.87847537 L15.8174343,3.87847537 Z" id="Shape"></path>
                    <polygon id="Path" points="19.3923768 0.775695074 17.2001951 0.775695074 17.2001951 0.0674517455 22.528883 0.0674517455 22.528883 0.775695074 20.3367013 0.775695074 20.3367013 6.61027106 19.3923768 6.61027106"></polygon>
                    <polygon id="Path" points="24.2826284 0.0337258728 24.2826284 6.57654519 23.338304 6.57654519 23.338304 0.0337258728"></polygon>
                    <path d="M25.9014703,6.57654519 L25.9014703,0.0337258728 L26.9132465,0.0337258728 L29.2403317,3.3388614 C29.7799456,4.11455648 30.1846561,4.78907393 30.5219148,5.46359139 L30.5556407,5.46359139 C30.4544631,4.5867187 30.4544631,3.77729775 30.4544631,2.76552157 L30.4544631,0.0337258728 L31.3313358,0.0337258728 L31.3313358,6.57654519 L30.3870114,6.57654519 L28.093652,3.23768379 C27.5877639,2.49571458 27.1156017,1.75374538 26.7446171,1.04550206 L26.7108912,1.04550206 C26.778343,1.854923 26.778343,2.66434395 26.778343,3.74357188 L26.778343,6.54281932 L25.9014703,6.54281932 L25.9014703,6.57654519 Z" id="Path"></path>
                    <path d="M38.4474949,6.30673821 C38.0427845,6.4416417 37.1996377,6.67772281 36.2215873,6.67772281 C35.1423594,6.67772281 34.2317609,6.4416417 33.5235175,5.80085011 C32.9164518,5.26123615 32.5117413,4.38436346 32.5117413,3.37258728 C32.5117413,1.41648666 33.9956797,0 36.4239426,0 C37.2670894,0 37.907881,0.168629364 38.2114138,0.303532855 L37.9753327,0.97805031 C37.6043481,0.809420946 37.09846,0.708243328 36.3902167,0.708243328 C34.6364713,0.708243328 33.4897917,1.68629364 33.4897917,3.3388614 C33.4897917,4.99142917 34.6027455,5.96947948 36.2890391,5.96947948 C36.8961048,5.96947948 37.3345411,5.90202773 37.5368964,5.80085011 L37.5368964,3.84474949 L36.052958,3.84474949 L36.052958,3.17023204 L38.4474949,3.17023204 L38.4474949,6.30673821 L38.4474949,6.30673821 Z" id="Path"></path>
                </g>
                <line x1="63.7756254" y1="425.283256" x2="63.7756254" y2="445.248972" id="Path" stroke="#000000" stroke-width="4" stroke-linecap="round"></line>
                <line x1="67.7890043" y1="430.072329" x2="67.7890043" y2="441.842659" id="Path" stroke="#000000" stroke-width="4" stroke-linecap="round"></line>
                <line x1="59.3912619" y1="430.072329" x2="59.3912619" y2="441.842659" id="Path" stroke="#000000" stroke-width="4" stroke-linecap="round"></line>
                <line x1="71.4651244" y1="434.793952" x2="71.4651244" y2="437.121037" id="Path" stroke="#000000" stroke-width="4" stroke-linecap="round"></line>
                <line x1="55.7151418" y1="434.321789" x2="55.7151418" y2="436.682601" id="Path" stroke="#000000" stroke-width="4" stroke-linecap="round"></line>
            </g>
        </g>
    </g>
</svg>